<?xml version="1.0" encoding="utf-8"?>
<!-- Generator: Adobe Illustrator 17.0.0, SVG Export Plug-In . SVG Version: 6.00 Build 0)  -->
<!DOCTYPE svg PUBLIC "-//W3C//DTD SVG 1.1//EN" "http://www.w3.org/Graphics/SVG/1.1/DTD/svg11.dtd">
<svg version="1.1" id="Layer_1" xmlns="http://www.w3.org/2000/svg" xmlns:xlink="http://www.w3.org/1999/xlink" x="0px" y="0px"
	 width="462.42px" height="449.225px" viewBox="0 0 462.42 449.225" enable-background="new 0 0 462.42 449.225"
	 xml:space="preserve">
<g>
	<path fill="#F1F1F1" d="M232.244,13.249c-54.018,0-108.036-0.008-162.054,0.005c-15.78,0.004-31.562,0.244-47.339,0.051
		c-12.571-0.154-15.059,4.868-9.127,15.571c5.292,9.55,10.892,19.059,14.89,29.166C35.329,75.018,46.396,80.771,65.021,80.6
		c101.351-0.931,202.717-0.067,304.073-0.599c63.39-0.333,44.531,9.039,75.436-47.291c9.288-16.929,7.504-19.368-11.996-19.405
		C365.771,13.176,299.007,13.255,232.244,13.249z M229.607,101.028c-52.811,0-105.625,0.261-158.433-0.164
		c-15.272-0.123-18.799,4.768-11.22,18.151c5.677,10.024,11.166,20.23,15.731,30.79c6.07,14.04,15.7,19.473,31.254,19.341
		c71.624-0.606,143.258,0.085,214.885-0.297c66.313-0.354,45.917,8.048,77.963-49.395c8.683-15.565,6.555-18.313-11.746-18.357
		C335.23,100.969,282.419,101.052,229.607,101.028z M230.328,188.891c-37.59,0-75.182-0.192-112.77,0.083
		c-17.988,0.132-19.236,2.502-11.245,19.039c5.01,10.367,11.096,20.252,15.563,30.833c5.768,13.664,15.408,18.566,29.956,18.373
		c41.827-0.553,83.666-0.171,125.501-0.179c53.442-0.01,53.442-0.02,76.594-48.695c0.26-0.547,0.529-1.093,0.833-1.617
		c7.924-13.666,2.894-18.16-11.661-18.001C305.511,189.14,267.918,188.867,230.328,188.891z M229.899,276.795
		c0,0.02,0,0.041,0,0.061c-23.691,0-47.383,0.002-71.074-0.001c-10.345-0.001-14.335,3.048-9.658,14.36
		c22.132,53.536,21.906,53.63,79.14,53.624c1.215,0,2.43,0.022,3.645-0.003c62.207-1.318,45.233,10.048,76.443-48.94
		c8.824-16.677,6.98-18.91-12.887-19.063C273.639,276.665,251.768,276.795,229.899,276.795z M230.405,364.993
		c-9.071,0-18.143-0.105-27.212,0.028c-10.071,0.148-13.242,4.867-8.525,13.978c9.451,18.257,19.026,36.449,28.618,54.632
		c4.727,8.961,9.586,8.059,13.997-0.209c5.407-10.134,10.609-20.377,15.855-30.596C272.588,364.932,272.581,364.929,230.405,364.993
		z"/>
	<path fill="#676767" d="M232.244,13.252c66.764,0.003,133.527-0.076,200.291,0.052c19.5,0.037,21.284,2.476,11.996,19.405
		C413.626,89.039,432.485,79.667,369.095,80c-101.357,0.533-202.723-0.331-304.074,0.6c-18.626,0.171-29.692-5.582-36.407-22.558
		c-3.998-10.107-9.598-19.616-14.89-29.166c-5.931-10.703-3.444-15.725,9.127-15.571c15.777,0.193,31.559-0.047,47.339-0.051
		C124.208,13.241,178.226,13.249,232.244,13.252z"/>
	<path fill="#6A6A6A" d="M229.607,101.04c52.812,0.012,105.623-0.071,158.434,0.057c18.301,0.044,20.429,2.792,11.746,18.357
		c-32.046,57.443-11.649,49.041-77.963,49.395c-71.627,0.382-143.261-0.309-214.885,0.297c-15.554,0.131-25.184-5.301-31.254-19.341
		c-4.565-10.56-10.054-20.766-15.731-30.79c-7.58-13.383-4.052-18.274,11.22-18.151C123.982,101.289,176.796,101.028,229.607,101.04
		z"/>
	<path fill="#6A6A6A" d="M230.328,188.879c37.59-0.012,75.184,0.261,112.769-0.15c14.555-0.159,19.585,4.335,11.661,18.001
		c-0.304,0.524-0.573,1.069-0.833,1.617c-23.152,48.675-23.152,48.684-76.594,48.695c-41.834,0.008-83.674-0.374-125.501,0.179
		c-14.548,0.192-24.188-4.71-29.956-18.373c-4.467-10.581-10.553-20.467-15.563-30.833c-7.991-16.536-6.744-18.907,11.245-19.039
		C155.145,188.699,192.737,188.891,230.328,188.879z"/>
	<path fill="#6A6A6A" d="M229.899,276.795c21.87,0,43.74-0.13,65.608,0.038c19.867,0.153,21.711,2.385,12.887,19.063
		c-31.21,58.988-14.236,47.621-76.443,48.94c-1.214,0.026-2.43,0.003-3.645,0.003c-57.234,0.006-57.007-0.088-79.14-53.624
		c-4.677-11.312-0.687-14.361,9.658-14.36c23.691,0.003,47.383,0.001,71.074,0.001C229.899,276.836,229.899,276.815,229.899,276.795
		z"/>
	<path fill="#6A6A6A" d="M230.405,364.993c42.176-0.065,42.183-0.061,22.732,37.833c-5.245,10.219-10.448,20.463-15.855,30.596
		c-4.412,8.268-9.27,9.17-13.997,0.209c-9.591-18.183-19.167-36.375-28.618-54.632c-4.716-9.111-1.546-13.831,8.525-13.978
		C212.262,364.888,221.334,364.993,230.405,364.993z"/>
</g>
</svg>
