<svg width="338" height="152" viewBox="0 0 338 152" fill="none" xmlns="http://www.w3.org/2000/svg">
<path d="M337.553 139.147C337.553 145.774 332.18 151.147 325.553 151.147H12.0527C5.42573 151.147 0.0527344 145.774 0.0527344 139.147V12.147C0.0527344 5.51997 5.42573 0.146973 12.0527 0.146973H325.553C332.18 0.146973 337.553 5.51997 337.553 12.147V139.147Z" fill="white"/>
<path d="M51.5453 117.939V106.303H55.4771C56.3862 106.303 57.1324 106.458 57.7158 106.769C58.2991 107.076 58.7309 107.498 59.0112 108.036C59.2915 108.574 59.4317 109.185 59.4317 109.871C59.4317 110.557 59.2915 111.165 59.0112 111.695C58.7309 112.225 58.301 112.642 57.7215 112.945C57.1419 113.244 56.4014 113.394 55.4999 113.394H52.318V112.121H55.4544C56.0756 112.121 56.5756 112.03 56.9544 111.848C57.337 111.666 57.6135 111.409 57.784 111.076C57.9582 110.738 58.0453 110.337 58.0453 109.871C58.0453 109.405 57.9582 108.998 57.784 108.649C57.6097 108.301 57.3313 108.032 56.9487 107.843C56.5662 107.649 56.0605 107.553 55.4317 107.553H52.9544V117.939H51.5453ZM57.0226 112.712L59.8862 117.939H58.2499L55.4317 112.712H57.0226ZM65.1632 118.121C64.3223 118.121 63.5969 117.935 62.9871 117.564C62.381 117.189 61.9132 116.666 61.5837 115.996C61.2579 115.322 61.095 114.538 61.095 113.644C61.095 112.75 61.2579 111.962 61.5837 111.28C61.9132 110.595 62.3716 110.06 62.9587 109.678C63.5496 109.291 64.239 109.098 65.0269 109.098C65.4814 109.098 65.9303 109.174 66.3734 109.326C66.8166 109.477 67.22 109.723 67.5837 110.064C67.9473 110.401 68.2371 110.848 68.453 111.405C68.6689 111.962 68.7769 112.648 68.7769 113.462V114.03H62.0496V112.871H67.4132C67.4132 112.379 67.3147 111.939 67.1178 111.553C66.9246 111.166 66.6481 110.862 66.2882 110.638C65.9322 110.415 65.5117 110.303 65.0269 110.303C64.4928 110.303 64.0306 110.435 63.6405 110.701C63.2541 110.962 62.9568 111.303 62.7484 111.723C62.5401 112.144 62.4359 112.595 62.4359 113.076V113.848C62.4359 114.507 62.5496 115.066 62.7769 115.524C63.0079 115.979 63.328 116.326 63.7371 116.564C64.1462 116.799 64.6216 116.916 65.1632 116.916C65.5155 116.916 65.8337 116.867 66.1178 116.769C66.4056 116.666 66.6537 116.515 66.8621 116.314C67.0704 116.11 67.2314 115.856 67.345 115.553L68.6405 115.916C68.5041 116.356 68.275 116.742 67.953 117.076C67.631 117.405 67.2333 117.663 66.7598 117.848C66.2863 118.03 65.7541 118.121 65.1632 118.121ZM70.8166 121.212V109.212H72.1121V110.598H72.2712C72.3697 110.447 72.506 110.254 72.6803 110.019C72.8583 109.78 73.1121 109.568 73.4416 109.382C73.775 109.193 74.2257 109.098 74.7939 109.098C75.5287 109.098 76.1765 109.282 76.7371 109.649C77.2977 110.017 77.7352 110.538 78.0496 111.212C78.364 111.886 78.5212 112.682 78.5212 113.598C78.5212 114.523 78.364 115.324 78.0496 116.002C77.7352 116.676 77.2996 117.199 76.7428 117.57C76.1859 117.937 75.5439 118.121 74.8166 118.121C74.256 118.121 73.8072 118.028 73.47 117.843C73.1329 117.653 72.8734 117.439 72.6916 117.201C72.5098 116.958 72.3697 116.757 72.2712 116.598H72.1575V121.212H70.8166ZM72.1348 113.576C72.1348 114.235 72.2314 114.816 72.4246 115.32C72.6178 115.82 72.9 116.212 73.2712 116.496C73.6424 116.776 74.0969 116.916 74.6348 116.916C75.1954 116.916 75.6632 116.769 76.0382 116.473C76.417 116.174 76.7011 115.773 76.8905 115.269C77.0837 114.761 77.1803 114.197 77.1803 113.576C77.1803 112.962 77.0856 112.409 76.8962 111.916C76.7106 111.42 76.4284 111.028 76.0496 110.74C75.6746 110.449 75.203 110.303 74.6348 110.303C74.0894 110.303 73.631 110.441 73.2598 110.718C72.8886 110.99 72.6083 111.373 72.4189 111.865C72.2295 112.354 72.1348 112.924 72.1348 113.576ZM84.1121 118.121C83.3242 118.121 82.6329 117.934 82.0382 117.559C81.4473 117.184 80.9852 116.659 80.6519 115.985C80.3223 115.31 80.1575 114.523 80.1575 113.621C80.1575 112.712 80.3223 111.918 80.6519 111.24C80.9852 110.562 81.4473 110.036 82.0382 109.661C82.6329 109.286 83.3242 109.098 84.1121 109.098C84.9 109.098 85.5894 109.286 86.1803 109.661C86.775 110.036 87.2371 110.562 87.5666 111.24C87.9 111.918 88.0666 112.712 88.0666 113.621C88.0666 114.523 87.9 115.31 87.5666 115.985C87.2371 116.659 86.775 117.184 86.1803 117.559C85.5894 117.934 84.9 118.121 84.1121 118.121ZM84.1121 116.916C84.7106 116.916 85.203 116.763 85.5894 116.456C85.9757 116.149 86.2617 115.746 86.4473 115.246C86.6329 114.746 86.7257 114.204 86.7257 113.621C86.7257 113.038 86.6329 112.494 86.4473 111.99C86.2617 111.487 85.9757 111.079 85.5894 110.769C85.203 110.458 84.7106 110.303 84.1121 110.303C83.5136 110.303 83.0212 110.458 82.6348 110.769C82.2484 111.079 81.9625 111.487 81.7769 111.99C81.5912 112.494 81.4984 113.038 81.4984 113.621C81.4984 114.204 81.5912 114.746 81.7769 115.246C81.9625 115.746 82.2484 116.149 82.6348 116.456C83.0212 116.763 83.5136 116.916 84.1121 116.916ZM90.1135 117.939V109.212H91.409V110.53H91.4999C91.659 110.098 91.9468 109.748 92.3635 109.479C92.7802 109.21 93.2499 109.076 93.7726 109.076C93.8711 109.076 93.9942 109.077 94.1419 109.081C94.2896 109.085 94.4014 109.091 94.4771 109.098V110.462C94.4317 110.451 94.3275 110.434 94.1646 110.411C94.0055 110.384 93.837 110.371 93.659 110.371C93.2347 110.371 92.8559 110.46 92.5226 110.638C92.193 110.812 91.9317 111.055 91.7385 111.365C91.5491 111.672 91.4544 112.023 91.4544 112.416V117.939H90.1135ZM100.409 109.212V110.348H95.8862V109.212H100.409ZM97.2044 107.121H98.5453V115.439C98.5453 115.818 98.6002 116.102 98.7101 116.291C98.8237 116.477 98.9677 116.602 99.1419 116.666C99.3199 116.727 99.5074 116.757 99.7044 116.757C99.8521 116.757 99.9734 116.75 100.068 116.735C100.163 116.716 100.239 116.701 100.295 116.689L100.568 117.894C100.477 117.928 100.35 117.962 100.187 117.996C100.024 118.034 99.818 118.053 99.568 118.053C99.1893 118.053 98.818 117.971 98.4544 117.809C98.0946 117.646 97.7953 117.398 97.5567 117.064C97.3218 116.731 97.2044 116.31 97.2044 115.803V107.121ZM107.108 117.939V106.303H111.176C111.987 106.303 112.655 106.443 113.182 106.723C113.708 107 114.1 107.373 114.358 107.843C114.615 108.309 114.744 108.826 114.744 109.394C114.744 109.894 114.655 110.307 114.477 110.632C114.303 110.958 114.072 111.216 113.784 111.405C113.5 111.595 113.191 111.735 112.858 111.826V111.939C113.214 111.962 113.572 112.087 113.932 112.314C114.292 112.541 114.593 112.867 114.835 113.291C115.078 113.716 115.199 114.235 115.199 114.848C115.199 115.432 115.066 115.956 114.801 116.422C114.536 116.888 114.117 117.257 113.545 117.53C112.973 117.803 112.229 117.939 111.312 117.939H107.108ZM108.517 116.689H111.312C112.233 116.689 112.886 116.511 113.273 116.155C113.663 115.795 113.858 115.36 113.858 114.848C113.858 114.454 113.757 114.091 113.557 113.757C113.356 113.42 113.07 113.151 112.699 112.951C112.328 112.746 111.888 112.644 111.381 112.644H108.517V116.689ZM108.517 111.416H111.131C111.555 111.416 111.937 111.333 112.278 111.166C112.623 111 112.896 110.765 113.096 110.462C113.301 110.159 113.403 109.803 113.403 109.394C113.403 108.882 113.225 108.449 112.869 108.093C112.513 107.733 111.949 107.553 111.176 107.553H108.517V111.416ZM120.878 118.121C120.09 118.121 119.399 117.934 118.804 117.559C118.213 117.184 117.751 116.659 117.417 115.985C117.088 115.31 116.923 114.523 116.923 113.621C116.923 112.712 117.088 111.918 117.417 111.24C117.751 110.562 118.213 110.036 118.804 109.661C119.399 109.286 120.09 109.098 120.878 109.098C121.666 109.098 122.355 109.286 122.946 109.661C123.541 110.036 124.003 110.562 124.332 111.24C124.666 111.918 124.832 112.712 124.832 113.621C124.832 114.523 124.666 115.31 124.332 115.985C124.003 116.659 123.541 117.184 122.946 117.559C122.355 117.934 121.666 118.121 120.878 118.121ZM120.878 116.916C121.476 116.916 121.969 116.763 122.355 116.456C122.741 116.149 123.027 115.746 123.213 115.246C123.399 114.746 123.491 114.204 123.491 113.621C123.491 113.038 123.399 112.494 123.213 111.99C123.027 111.487 122.741 111.079 122.355 110.769C121.969 110.458 121.476 110.303 120.878 110.303C120.279 110.303 119.787 110.458 119.4 110.769C119.014 111.079 118.728 111.487 118.542 111.99C118.357 112.494 118.264 113.038 118.264 113.621C118.264 114.204 118.357 114.746 118.542 115.246C118.728 115.746 119.014 116.149 119.4 116.456C119.787 116.763 120.279 116.916 120.878 116.916ZM127.061 117.939V106.303H128.402V110.598H128.515C128.614 110.447 128.75 110.254 128.925 110.019C129.103 109.78 129.356 109.568 129.686 109.382C130.019 109.193 130.47 109.098 131.038 109.098C131.773 109.098 132.421 109.282 132.981 109.649C133.542 110.017 133.98 110.538 134.294 111.212C134.608 111.886 134.765 112.682 134.765 113.598C134.765 114.523 134.608 115.324 134.294 116.002C133.98 116.676 133.544 117.199 132.987 117.57C132.43 117.937 131.788 118.121 131.061 118.121C130.5 118.121 130.051 118.028 129.714 117.843C129.377 117.653 129.118 117.439 128.936 117.201C128.754 116.958 128.614 116.757 128.515 116.598H128.356V117.939H127.061ZM128.379 113.576C128.379 114.235 128.476 114.816 128.669 115.32C128.862 115.82 129.144 116.212 129.515 116.496C129.887 116.776 130.341 116.916 130.879 116.916C131.44 116.916 131.908 116.769 132.283 116.473C132.661 116.174 132.945 115.773 133.135 115.269C133.328 114.761 133.425 114.197 133.425 113.576C133.425 112.962 133.33 112.409 133.14 111.916C132.955 111.42 132.673 111.028 132.294 110.74C131.919 110.449 131.447 110.303 130.879 110.303C130.334 110.303 129.875 110.441 129.504 110.718C129.133 110.99 128.853 111.373 128.663 111.865C128.474 112.354 128.379 112.924 128.379 113.576ZM139.385 118.144C138.832 118.144 138.33 118.04 137.879 117.831C137.428 117.619 137.07 117.314 136.805 116.916C136.54 116.515 136.408 116.03 136.408 115.462C136.408 114.962 136.506 114.557 136.703 114.246C136.9 113.932 137.163 113.685 137.493 113.507C137.822 113.329 138.186 113.197 138.584 113.11C138.985 113.019 139.389 112.947 139.794 112.894C140.324 112.826 140.754 112.774 141.084 112.74C141.417 112.702 141.659 112.64 141.811 112.553C141.966 112.466 142.044 112.314 142.044 112.098V112.053C142.044 111.492 141.89 111.057 141.584 110.746C141.281 110.435 140.82 110.28 140.203 110.28C139.563 110.28 139.061 110.42 138.697 110.701C138.334 110.981 138.078 111.28 137.93 111.598L136.658 111.144C136.885 110.613 137.188 110.201 137.567 109.905C137.949 109.606 138.366 109.398 138.817 109.28C139.271 109.159 139.718 109.098 140.158 109.098C140.438 109.098 140.76 109.132 141.123 109.201C141.491 109.265 141.845 109.399 142.186 109.604C142.531 109.809 142.817 110.117 143.044 110.53C143.271 110.943 143.385 111.496 143.385 112.189V117.939H142.044V116.757H141.976C141.885 116.947 141.733 117.149 141.521 117.365C141.309 117.581 141.027 117.765 140.675 117.916C140.322 118.068 139.892 118.144 139.385 118.144ZM139.589 116.939C140.12 116.939 140.567 116.835 140.93 116.627C141.298 116.418 141.574 116.149 141.76 115.82C141.949 115.49 142.044 115.144 142.044 114.78V113.553C141.987 113.621 141.862 113.684 141.669 113.74C141.48 113.793 141.26 113.841 141.01 113.882C140.764 113.92 140.523 113.954 140.288 113.985C140.057 114.011 139.87 114.034 139.726 114.053C139.377 114.098 139.051 114.172 138.748 114.274C138.449 114.373 138.207 114.523 138.021 114.723C137.839 114.92 137.748 115.189 137.748 115.53C137.748 115.996 137.921 116.348 138.265 116.587C138.614 116.822 139.055 116.939 139.589 116.939ZM145.832 117.939V109.212H147.128V110.53H147.219C147.378 110.098 147.666 109.748 148.082 109.479C148.499 109.21 148.969 109.076 149.491 109.076C149.59 109.076 149.713 109.077 149.861 109.081C150.008 109.085 150.12 109.091 150.196 109.098V110.462C150.15 110.451 150.046 110.434 149.883 110.411C149.724 110.384 149.556 110.371 149.378 110.371C148.953 110.371 148.575 110.46 148.241 110.638C147.912 110.812 147.65 111.055 147.457 111.365C147.268 111.672 147.173 112.023 147.173 112.416V117.939H145.832ZM157.285 114.371V109.212H158.626V117.939H157.285V116.462H157.194C156.99 116.905 156.672 117.282 156.24 117.593C155.808 117.899 155.263 118.053 154.604 118.053C154.058 118.053 153.573 117.934 153.149 117.695C152.725 117.452 152.391 117.089 152.149 116.604C151.907 116.115 151.785 115.5 151.785 114.757V109.212H153.126V114.666C153.126 115.303 153.304 115.81 153.66 116.189C154.02 116.568 154.479 116.757 155.035 116.757C155.369 116.757 155.708 116.672 156.052 116.502C156.401 116.331 156.693 116.07 156.927 115.718C157.166 115.365 157.285 114.916 157.285 114.371ZM167.264 111.166L166.06 111.507C165.984 111.307 165.872 111.112 165.724 110.922C165.58 110.729 165.383 110.57 165.133 110.445C164.883 110.32 164.563 110.257 164.173 110.257C163.639 110.257 163.194 110.38 162.838 110.627C162.486 110.869 162.31 111.178 162.31 111.553C162.31 111.886 162.431 112.149 162.673 112.343C162.916 112.536 163.294 112.697 163.81 112.826L165.105 113.144C165.885 113.333 166.467 113.623 166.849 114.013C167.232 114.399 167.423 114.898 167.423 115.507C167.423 116.007 167.279 116.454 166.991 116.848C166.707 117.242 166.31 117.553 165.798 117.78C165.287 118.007 164.692 118.121 164.014 118.121C163.124 118.121 162.387 117.928 161.804 117.541C161.221 117.155 160.851 116.591 160.696 115.848L161.969 115.53C162.09 116 162.319 116.352 162.656 116.587C162.997 116.822 163.442 116.939 163.991 116.939C164.616 116.939 165.113 116.807 165.48 116.541C165.851 116.273 166.037 115.951 166.037 115.576C166.037 115.273 165.931 115.019 165.719 114.814C165.506 114.606 165.181 114.451 164.741 114.348L163.287 114.007C162.488 113.818 161.9 113.524 161.525 113.127C161.154 112.725 160.969 112.223 160.969 111.621C160.969 111.129 161.107 110.693 161.383 110.314C161.664 109.935 162.044 109.638 162.525 109.422C163.01 109.206 163.56 109.098 164.173 109.098C165.037 109.098 165.715 109.288 166.207 109.666C166.703 110.045 167.056 110.545 167.264 111.166ZM170.692 114.757L170.669 113.098H170.942L174.76 109.212H176.419L172.351 113.326H172.237L170.692 114.757ZM169.442 117.939V106.303H170.783V117.939H169.442ZM174.987 117.939L171.578 113.621L172.533 112.689L176.692 117.939H174.987ZM178.145 117.939V109.212H179.486V117.939H178.145ZM178.827 107.757C178.565 107.757 178.34 107.668 178.15 107.49C177.965 107.312 177.872 107.098 177.872 106.848C177.872 106.598 177.965 106.384 178.15 106.206C178.34 106.028 178.565 105.939 178.827 105.939C179.088 105.939 179.311 106.028 179.497 106.206C179.686 106.384 179.781 106.598 179.781 106.848C179.781 107.098 179.686 107.312 179.497 107.49C179.311 107.668 179.088 107.757 178.827 107.757ZM185.601 118.121C184.76 118.121 184.034 117.935 183.425 117.564C182.819 117.189 182.351 116.666 182.021 115.996C181.695 115.322 181.533 114.538 181.533 113.644C181.533 112.75 181.695 111.962 182.021 111.28C182.351 110.595 182.809 110.06 183.396 109.678C183.987 109.291 184.676 109.098 185.464 109.098C185.919 109.098 186.368 109.174 186.811 109.326C187.254 109.477 187.658 109.723 188.021 110.064C188.385 110.401 188.675 110.848 188.89 111.405C189.106 111.962 189.214 112.648 189.214 113.462V114.03H182.487V112.871H187.851C187.851 112.379 187.752 111.939 187.555 111.553C187.362 111.166 187.086 110.862 186.726 110.638C186.37 110.415 185.949 110.303 185.464 110.303C184.93 110.303 184.468 110.435 184.078 110.701C183.692 110.962 183.394 111.303 183.186 111.723C182.978 112.144 182.873 112.595 182.873 113.076V113.848C182.873 114.507 182.987 115.066 183.214 115.524C183.445 115.979 183.765 116.326 184.175 116.564C184.584 116.799 185.059 116.916 185.601 116.916C185.953 116.916 186.271 116.867 186.555 116.769C186.843 116.666 187.091 116.515 187.3 116.314C187.508 116.11 187.669 115.856 187.783 115.553L189.078 115.916C188.942 116.356 188.712 116.742 188.39 117.076C188.069 117.405 187.671 117.663 187.197 117.848C186.724 118.03 186.192 118.121 185.601 118.121ZM195.936 117.939V106.303H199.868C200.781 106.303 201.527 106.468 202.106 106.797C202.69 107.123 203.122 107.564 203.402 108.121C203.682 108.678 203.822 109.299 203.822 109.985C203.822 110.67 203.682 111.293 203.402 111.854C203.125 112.415 202.697 112.862 202.118 113.195C201.538 113.524 200.796 113.689 199.89 113.689H197.072V112.439H199.845C200.47 112.439 200.972 112.331 201.351 112.115C201.73 111.899 202.004 111.608 202.175 111.24C202.349 110.869 202.436 110.451 202.436 109.985C202.436 109.519 202.349 109.102 202.175 108.735C202.004 108.367 201.728 108.079 201.345 107.871C200.962 107.659 200.455 107.553 199.822 107.553H197.345V117.939H195.936ZM209.362 118.121C208.574 118.121 207.883 117.934 207.288 117.559C206.697 117.184 206.235 116.659 205.902 115.985C205.572 115.31 205.408 114.523 205.408 113.621C205.408 112.712 205.572 111.918 205.902 111.24C206.235 110.562 206.697 110.036 207.288 109.661C207.883 109.286 208.574 109.098 209.362 109.098C210.15 109.098 210.839 109.286 211.43 109.661C212.025 110.036 212.487 110.562 212.817 111.24C213.15 111.918 213.317 112.712 213.317 113.621C213.317 114.523 213.15 115.31 212.817 115.985C212.487 116.659 212.025 117.184 211.43 117.559C210.839 117.934 210.15 118.121 209.362 118.121ZM209.362 116.916C209.961 116.916 210.453 116.763 210.839 116.456C211.226 116.149 211.512 115.746 211.697 115.246C211.883 114.746 211.976 114.204 211.976 113.621C211.976 113.038 211.883 112.494 211.697 111.99C211.512 111.487 211.226 111.079 210.839 110.769C210.453 110.458 209.961 110.303 209.362 110.303C208.764 110.303 208.271 110.458 207.885 110.769C207.498 111.079 207.212 111.487 207.027 111.99C206.841 112.494 206.748 113.038 206.748 113.621C206.748 114.204 206.841 114.746 207.027 115.246C207.212 115.746 207.498 116.149 207.885 116.456C208.271 116.763 208.764 116.916 209.362 116.916ZM221.545 111.166L220.341 111.507C220.265 111.307 220.153 111.112 220.006 110.922C219.862 110.729 219.665 110.57 219.415 110.445C219.165 110.32 218.845 110.257 218.454 110.257C217.92 110.257 217.475 110.38 217.119 110.627C216.767 110.869 216.591 111.178 216.591 111.553C216.591 111.886 216.712 112.149 216.954 112.343C217.197 112.536 217.576 112.697 218.091 112.826L219.386 113.144C220.167 113.333 220.748 113.623 221.131 114.013C221.513 114.399 221.704 114.898 221.704 115.507C221.704 116.007 221.56 116.454 221.273 116.848C220.989 117.242 220.591 117.553 220.079 117.78C219.568 118.007 218.973 118.121 218.295 118.121C217.405 118.121 216.668 117.928 216.085 117.541C215.502 117.155 215.132 116.591 214.977 115.848L216.25 115.53C216.371 116 216.6 116.352 216.937 116.587C217.278 116.822 217.723 116.939 218.273 116.939C218.898 116.939 219.394 116.807 219.761 116.541C220.132 116.273 220.318 115.951 220.318 115.576C220.318 115.273 220.212 115.019 220 114.814C219.788 114.606 219.462 114.451 219.023 114.348L217.568 114.007C216.769 113.818 216.182 113.524 215.807 113.127C215.435 112.725 215.25 112.223 215.25 111.621C215.25 111.129 215.388 110.693 215.665 110.314C215.945 109.935 216.326 109.638 216.807 109.422C217.292 109.206 217.841 109.098 218.454 109.098C219.318 109.098 219.996 109.288 220.489 109.666C220.985 110.045 221.337 110.545 221.545 111.166ZM227.518 109.212V110.348H222.996V109.212H227.518ZM224.314 107.121H225.655V115.439C225.655 115.818 225.71 116.102 225.819 116.291C225.933 116.477 226.077 116.602 226.251 116.666C226.429 116.727 226.617 116.757 226.814 116.757C226.962 116.757 227.083 116.75 227.177 116.735C227.272 116.716 227.348 116.701 227.405 116.689L227.677 117.894C227.587 117.928 227.46 117.962 227.297 117.996C227.134 118.034 226.927 118.053 226.677 118.053C226.299 118.053 225.927 117.971 225.564 117.809C225.204 117.646 224.905 117.398 224.666 117.064C224.431 116.731 224.314 116.31 224.314 115.803V107.121Z" fill="#010101"/>
<path d="M51.5453 74.2725V62.6361H58.568V63.8861H52.9544V67.8179H58.2044V69.0679H52.9544V73.0225H58.659V74.2725H51.5453ZM61.926 65.5452L64.0169 69.1134L66.1078 65.5452H67.6533L64.8351 69.9088L67.6533 74.2725H66.1078L64.0169 70.8861L61.926 74.2725H60.3805L63.1533 69.9088L60.3805 65.5452H61.926ZM72.7527 74.4543C71.9345 74.4543 71.23 74.2611 70.6391 73.8747C70.0482 73.4884 69.5936 72.9562 69.2754 72.2781C68.9573 71.6001 68.7982 70.8255 68.7982 69.9543C68.7982 69.0679 68.961 68.2857 69.2868 67.6077C69.6163 66.9259 70.0747 66.3937 70.6618 66.0111C71.2527 65.6247 71.9421 65.4316 72.73 65.4316C73.3436 65.4316 73.8966 65.5452 74.3891 65.7725C74.8815 65.9997 75.2849 66.3179 75.5993 66.727C75.9137 67.1361 76.1088 67.6134 76.1845 68.1588H74.8436C74.7413 67.7611 74.5141 67.4088 74.1618 67.102C73.8133 66.7914 73.3436 66.6361 72.7527 66.6361C72.23 66.6361 71.7716 66.7725 71.3777 67.0452C70.9876 67.3141 70.6826 67.6948 70.4629 68.1872C70.247 68.6759 70.1391 69.2497 70.1391 69.9088C70.1391 70.5831 70.2451 71.1702 70.4573 71.6702C70.6732 72.1702 70.9762 72.5584 71.3663 72.835C71.7603 73.1115 72.2224 73.2497 72.7527 73.2497C73.1012 73.2497 73.4175 73.1891 73.7016 73.0679C73.9857 72.9467 74.2262 72.7725 74.4232 72.5452C74.6201 72.3179 74.7603 72.0452 74.8436 71.727H76.1845C76.1088 72.2422 75.9213 72.7062 75.622 73.1191C75.3266 73.5281 74.9345 73.8539 74.4459 74.0963C73.961 74.335 73.3966 74.4543 72.7527 74.4543ZM81.6902 74.4543C80.9023 74.4543 80.211 74.2668 79.6163 73.8918C79.0254 73.5168 78.5633 72.9922 78.23 72.3179C77.9004 71.6437 77.7357 70.8558 77.7357 69.9543C77.7357 69.0452 77.9004 68.2516 78.23 67.5736C78.5633 66.8956 79.0254 66.3691 79.6163 65.9941C80.211 65.6191 80.9023 65.4316 81.6902 65.4316C82.4781 65.4316 83.1675 65.6191 83.7584 65.9941C84.3531 66.3691 84.8152 66.8956 85.1448 67.5736C85.4781 68.2516 85.6448 69.0452 85.6448 69.9543C85.6448 70.8558 85.4781 71.6437 85.1448 72.3179C84.8152 72.9922 84.3531 73.5168 83.7584 73.8918C83.1675 74.2668 82.4781 74.4543 81.6902 74.4543ZM81.6902 73.2497C82.2887 73.2497 82.7811 73.0963 83.1675 72.7895C83.5538 72.4827 83.8398 72.0793 84.0254 71.5793C84.211 71.0793 84.3038 70.5376 84.3038 69.9543C84.3038 69.3709 84.211 68.8274 84.0254 68.3236C83.8398 67.8198 83.5538 67.4126 83.1675 67.102C82.7811 66.7914 82.2887 66.6361 81.6902 66.6361C81.0917 66.6361 80.5993 66.7914 80.2129 67.102C79.8266 67.4126 79.5406 67.8198 79.355 68.3236C79.1694 68.8274 79.0766 69.3709 79.0766 69.9543C79.0766 70.5376 79.1694 71.0793 79.355 71.5793C79.5406 72.0793 79.8266 72.4827 80.2129 72.7895C80.5993 73.0963 81.0917 73.2497 81.6902 73.2497ZM87.6916 74.2725V65.5452H88.9871V66.9088H89.1007C89.2825 66.4429 89.5761 66.0812 89.9814 65.8236C90.3867 65.5622 90.8734 65.4316 91.4416 65.4316C92.0174 65.4316 92.4966 65.5622 92.8791 65.8236C93.2655 66.0812 93.5666 66.4429 93.7825 66.9088H93.8734C94.0969 66.4581 94.4322 66.1001 94.8791 65.835C95.3261 65.566 95.8621 65.4316 96.4871 65.4316C97.2674 65.4316 97.9056 65.6759 98.4019 66.1645C98.8981 66.6494 99.1462 67.405 99.1462 68.4316V74.2725H97.8053V68.4316C97.8053 67.7876 97.6291 67.3274 97.2769 67.0509C96.9246 66.7744 96.5098 66.6361 96.0325 66.6361C95.4189 66.6361 94.9435 66.8217 94.6064 67.1929C94.2693 67.5603 94.1007 68.0262 94.1007 68.5906V74.2725H92.7371V68.2952C92.7371 67.799 92.5761 67.3994 92.2541 67.0963C91.9322 66.7895 91.5174 66.6361 91.0098 66.6361C90.6613 66.6361 90.3356 66.7289 90.0325 66.9145C89.7333 67.1001 89.4909 67.3577 89.3053 67.6872C89.1234 68.013 89.0325 68.3899 89.0325 68.8179V74.2725H87.6916ZM101.598 74.2725V65.5452H102.893V66.9088H103.007C103.189 66.4429 103.482 66.0812 103.888 65.8236C104.293 65.5622 104.78 65.4316 105.348 65.4316C105.924 65.4316 106.403 65.5622 106.785 65.8236C107.172 66.0812 107.473 66.4429 107.689 66.9088H107.78C108.003 66.4581 108.338 66.1001 108.785 65.835C109.232 65.566 109.768 65.4316 110.393 65.4316C111.174 65.4316 111.812 65.6759 112.308 66.1645C112.804 66.6494 113.052 67.405 113.052 68.4316V74.2725H111.712V68.4316C111.712 67.7876 111.535 67.3274 111.183 67.0509C110.831 66.7744 110.416 66.6361 109.939 66.6361C109.325 66.6361 108.85 66.8217 108.513 67.1929C108.176 67.5603 108.007 68.0262 108.007 68.5906V74.2725H106.643V68.2952C106.643 67.799 106.482 67.3994 106.16 67.0963C105.838 66.7895 105.424 66.6361 104.916 66.6361C104.568 66.6361 104.242 66.7289 103.939 66.9145C103.64 67.1001 103.397 67.3577 103.212 67.6872C103.03 68.013 102.939 68.3899 102.939 68.8179V74.2725H101.598ZM121.004 70.7043V65.5452H122.345V74.2725H121.004V72.7952H120.913C120.709 73.2384 120.39 73.6153 119.959 73.9259C119.527 74.2327 118.981 74.3861 118.322 74.3861C117.777 74.3861 117.292 74.2668 116.868 74.0281C116.444 73.7857 116.11 73.4221 115.868 72.9372C115.625 72.4486 115.504 71.8331 115.504 71.0906V65.5452H116.845V70.9997C116.845 71.6361 117.023 72.1437 117.379 72.5225C117.739 72.9012 118.197 73.0906 118.754 73.0906C119.087 73.0906 119.426 73.0054 119.771 72.835C120.12 72.6645 120.411 72.4031 120.646 72.0509C120.885 71.6986 121.004 71.2497 121.004 70.7043ZM126.142 69.0225V74.2725H124.801V65.5452H126.096V66.9088H126.21C126.415 66.4656 126.725 66.1096 127.142 65.8406C127.559 65.5679 128.096 65.4316 128.756 65.4316C129.346 65.4316 129.864 65.5528 130.307 65.7952C130.75 66.0338 131.095 66.3975 131.341 66.8861C131.587 67.3709 131.71 67.9846 131.71 68.727V74.2725H130.369V68.8179C130.369 68.1323 130.191 67.5982 129.835 67.2156C129.479 66.8293 128.99 66.6361 128.369 66.6361C127.941 66.6361 127.559 66.7289 127.221 66.9145C126.888 67.1001 126.625 67.3709 126.432 67.727C126.239 68.0831 126.142 68.5149 126.142 69.0225ZM134.16 74.2725V65.5452H135.501V74.2725H134.16ZM134.842 64.0906C134.581 64.0906 134.355 64.0016 134.166 63.8236C133.98 63.6456 133.888 63.4316 133.888 63.1816C133.888 62.9316 133.98 62.7175 134.166 62.5395C134.355 62.3615 134.581 62.2725 134.842 62.2725C135.104 62.2725 135.327 62.3615 135.513 62.5395C135.702 62.7175 135.797 62.9316 135.797 63.1816C135.797 63.4316 135.702 63.6456 135.513 63.8236C135.327 64.0016 135.104 64.0906 134.842 64.0906ZM141.503 74.4543C140.685 74.4543 139.98 74.2611 139.389 73.8747C138.798 73.4884 138.344 72.9562 138.025 72.2781C137.707 71.6001 137.548 70.8255 137.548 69.9543C137.548 69.0679 137.711 68.2857 138.037 67.6077C138.366 66.9259 138.825 66.3937 139.412 66.0111C140.003 65.6247 140.692 65.4316 141.48 65.4316C142.094 65.4316 142.647 65.5452 143.139 65.7725C143.631 65.9997 144.035 66.3179 144.349 66.727C144.664 67.1361 144.859 67.6134 144.935 68.1588H143.594C143.491 67.7611 143.264 67.4088 142.912 67.102C142.563 66.7914 142.094 66.6361 141.503 66.6361C140.98 66.6361 140.522 66.7725 140.128 67.0452C139.738 67.3141 139.433 67.6948 139.213 68.1872C138.997 68.6759 138.889 69.2497 138.889 69.9088C138.889 70.5831 138.995 71.1702 139.207 71.6702C139.423 72.1702 139.726 72.5584 140.116 72.835C140.51 73.1115 140.972 73.2497 141.503 73.2497C141.851 73.2497 142.167 73.1891 142.452 73.0679C142.736 72.9467 142.976 72.7725 143.173 72.5452C143.37 72.3179 143.51 72.0452 143.594 71.727H144.935C144.859 72.2422 144.671 72.7062 144.372 73.1191C144.077 73.5281 143.685 73.8539 143.196 74.0963C142.711 74.335 142.147 74.4543 141.503 74.4543ZM149.463 74.477C148.91 74.477 148.408 74.3728 147.957 74.1645C147.506 73.9524 147.149 73.6475 146.883 73.2497C146.618 72.8482 146.486 72.3634 146.486 71.7952C146.486 71.2952 146.584 70.8899 146.781 70.5793C146.978 70.2649 147.241 70.0187 147.571 69.8406C147.9 69.6626 148.264 69.53 148.662 69.4429C149.063 69.352 149.467 69.28 149.872 69.227C150.402 69.1588 150.832 69.1077 151.162 69.0736C151.495 69.0357 151.738 68.9732 151.889 68.8861C152.044 68.799 152.122 68.6475 152.122 68.4316V68.3861C152.122 67.8255 151.969 67.3899 151.662 67.0793C151.359 66.7687 150.899 66.6134 150.281 66.6134C149.641 66.6134 149.139 66.7535 148.775 67.0338C148.412 67.3141 148.156 67.6134 148.008 67.9316L146.736 67.477C146.963 66.9467 147.266 66.5338 147.645 66.2384C148.027 65.9391 148.444 65.7308 148.895 65.6134C149.349 65.4922 149.796 65.4316 150.236 65.4316C150.516 65.4316 150.838 65.4656 151.202 65.5338C151.569 65.5982 151.923 65.7327 152.264 65.9372C152.609 66.1418 152.895 66.4505 153.122 66.8634C153.349 67.2762 153.463 67.8293 153.463 68.5225V74.2725H152.122V73.0906H152.054C151.963 73.28 151.811 73.4827 151.599 73.6986C151.387 73.9145 151.105 74.0982 150.753 74.2497C150.4 74.4012 149.971 74.477 149.463 74.477ZM149.667 73.2725C150.198 73.2725 150.645 73.1683 151.008 72.96C151.376 72.7516 151.652 72.4827 151.838 72.1531C152.027 71.8236 152.122 71.477 152.122 71.1134V69.8861C152.065 69.9543 151.94 70.0168 151.747 70.0736C151.558 70.1266 151.338 70.174 151.088 70.2156C150.842 70.2535 150.601 70.2876 150.366 70.3179C150.135 70.3444 149.948 70.3672 149.804 70.3861C149.455 70.4316 149.13 70.5054 148.827 70.6077C148.527 70.7062 148.285 70.8558 148.099 71.0566C147.917 71.2535 147.827 71.5225 147.827 71.8634C147.827 72.3293 147.999 72.6816 148.344 72.9202C148.692 73.155 149.133 73.2725 149.667 73.2725ZM159.706 65.5452V66.6816H155.183V65.5452H159.706ZM156.501 63.4543H157.842V71.7725C157.842 72.1512 157.897 72.4353 158.007 72.6247C158.121 72.8103 158.265 72.9353 158.439 72.9997C158.617 73.0603 158.804 73.0906 159.001 73.0906C159.149 73.0906 159.27 73.0831 159.365 73.0679C159.46 73.049 159.535 73.0338 159.592 73.0225L159.865 74.227C159.774 74.2611 159.647 74.2952 159.484 74.3293C159.321 74.3672 159.115 74.3861 158.865 74.3861C158.486 74.3861 158.115 74.3047 157.751 74.1418C157.391 73.9789 157.092 73.7308 156.854 73.3975C156.619 73.0641 156.501 72.6437 156.501 72.1361V63.4543ZM165.288 74.4543C164.447 74.4543 163.722 74.2687 163.112 73.8975C162.506 73.5225 162.038 72.9997 161.709 72.3293C161.383 71.655 161.22 70.8709 161.22 69.977C161.22 69.0831 161.383 68.2952 161.709 67.6134C162.038 66.9278 162.497 66.3937 163.084 66.0111C163.675 65.6247 164.364 65.4316 165.152 65.4316C165.606 65.4316 166.055 65.5073 166.498 65.6588C166.942 65.8103 167.345 66.0566 167.709 66.3975C168.072 66.7346 168.362 67.1816 168.578 67.7384C168.794 68.2952 168.902 68.9808 168.902 69.7952V70.3634H162.175V69.2043H167.538C167.538 68.7119 167.44 68.2725 167.243 67.8861C167.05 67.4997 166.773 67.1948 166.413 66.9713C166.057 66.7478 165.637 66.6361 165.152 66.6361C164.618 66.6361 164.156 66.7687 163.765 67.0338C163.379 67.2952 163.082 67.6361 162.873 68.0566C162.665 68.477 162.561 68.9278 162.561 69.4088V70.1816C162.561 70.8406 162.675 71.3994 162.902 71.8577C163.133 72.3122 163.453 72.6588 163.862 72.8975C164.271 73.1323 164.747 73.2497 165.288 73.2497C165.64 73.2497 165.959 73.2005 166.243 73.102C166.531 72.9997 166.779 72.8482 166.987 72.6475C167.195 72.4429 167.356 72.1891 167.47 71.8861L168.765 72.2497C168.629 72.6891 168.4 73.0755 168.078 73.4088C167.756 73.7384 167.358 73.9959 166.885 74.1816C166.411 74.3634 165.879 74.4543 165.288 74.4543ZM175.623 74.2725V62.6361H179.692C180.502 62.6361 181.171 62.7762 181.697 63.0566C182.224 63.3331 182.616 63.7062 182.873 64.1759C183.131 64.6418 183.26 65.1588 183.26 65.727C183.26 66.227 183.171 66.6399 182.993 66.9656C182.819 67.2914 182.587 67.549 182.3 67.7384C182.015 67.9278 181.707 68.0679 181.373 68.1588V68.2725C181.73 68.2952 182.087 68.4202 182.447 68.6475C182.807 68.8747 183.108 69.2005 183.351 69.6247C183.593 70.049 183.714 70.5679 183.714 71.1816C183.714 71.7649 183.582 72.2895 183.317 72.7554C183.051 73.2213 182.633 73.5906 182.061 73.8634C181.489 74.1361 180.745 74.2725 179.828 74.2725H175.623ZM177.033 73.0225H179.828C180.748 73.0225 181.402 72.8444 181.788 72.4884C182.178 72.1285 182.373 71.6929 182.373 71.1816C182.373 70.7876 182.273 70.424 182.072 70.0906C181.872 69.7535 181.586 69.4846 181.214 69.2838C180.843 69.0793 180.404 68.977 179.896 68.977H177.033V73.0225ZM177.033 67.7497H179.646C180.07 67.7497 180.453 67.6664 180.794 67.4997C181.139 67.3331 181.411 67.0982 181.612 66.7952C181.817 66.4922 181.919 66.1361 181.919 65.727C181.919 65.2156 181.741 64.7819 181.385 64.4259C181.029 64.066 180.464 63.8861 179.692 63.8861H177.033V67.7497ZM189.393 74.4543C188.605 74.4543 187.914 74.2668 187.319 73.8918C186.729 73.5168 186.266 72.9922 185.933 72.3179C185.604 71.6437 185.439 70.8558 185.439 69.9543C185.439 69.0452 185.604 68.2516 185.933 67.5736C186.266 66.8956 186.729 66.3691 187.319 65.9941C187.914 65.6191 188.605 65.4316 189.393 65.4316C190.181 65.4316 190.871 65.6191 191.462 65.9941C192.056 66.3691 192.518 66.8956 192.848 67.5736C193.181 68.2516 193.348 69.0452 193.348 69.9543C193.348 70.8558 193.181 71.6437 192.848 72.3179C192.518 72.9922 192.056 73.5168 191.462 73.8918C190.871 74.2668 190.181 74.4543 189.393 74.4543ZM189.393 73.2497C189.992 73.2497 190.484 73.0963 190.871 72.7895C191.257 72.4827 191.543 72.0793 191.729 71.5793C191.914 71.0793 192.007 70.5376 192.007 69.9543C192.007 69.3709 191.914 68.8274 191.729 68.3236C191.543 67.8198 191.257 67.4126 190.871 67.102C190.484 66.7914 189.992 66.6361 189.393 66.6361C188.795 66.6361 188.302 66.7914 187.916 67.102C187.53 67.4126 187.244 67.8198 187.058 68.3236C186.872 68.8274 186.78 69.3709 186.78 69.9543C186.78 70.5376 186.872 71.0793 187.058 71.5793C187.244 72.0793 187.53 72.4827 187.916 72.7895C188.302 73.0963 188.795 73.2497 189.393 73.2497ZM195.577 74.2725V62.6361H196.917V66.9316H197.031C197.13 66.78 197.266 66.5869 197.44 66.352C197.618 66.1134 197.872 65.9012 198.202 65.7156C198.535 65.5262 198.986 65.4316 199.554 65.4316C200.289 65.4316 200.936 65.6153 201.497 65.9827C202.058 66.3501 202.495 66.8709 202.81 67.5452C203.124 68.2194 203.281 69.0149 203.281 69.9316C203.281 70.8558 203.124 71.6569 202.81 72.335C202.495 73.0092 202.06 73.5319 201.503 73.9031C200.946 74.2706 200.304 74.4543 199.577 74.4543C199.016 74.4543 198.567 74.3615 198.23 74.1759C197.893 73.9865 197.633 73.7725 197.452 73.5338C197.27 73.2914 197.13 73.0906 197.031 72.9316H196.872V74.2725H195.577ZM196.895 69.9088C196.895 70.5679 196.991 71.1494 197.185 71.6531C197.378 72.1531 197.66 72.5452 198.031 72.8293C198.402 73.1096 198.857 73.2497 199.395 73.2497C199.955 73.2497 200.423 73.102 200.798 72.8066C201.177 72.5073 201.461 72.1058 201.65 71.602C201.844 71.0944 201.94 70.53 201.94 69.9088C201.94 69.2952 201.846 68.7422 201.656 68.2497C201.471 67.7535 201.188 67.3615 200.81 67.0736C200.435 66.7819 199.963 66.6361 199.395 66.6361C198.849 66.6361 198.391 66.7744 198.02 67.0509C197.649 67.3236 197.368 67.7062 197.179 68.1986C196.989 68.6872 196.895 69.2573 196.895 69.9088ZM207.9 74.477C207.347 74.477 206.846 74.3728 206.395 74.1645C205.944 73.9524 205.586 73.6475 205.321 73.2497C205.056 72.8482 204.923 72.3634 204.923 71.7952C204.923 71.2952 205.022 70.8899 205.219 70.5793C205.416 70.2649 205.679 70.0187 206.008 69.8406C206.338 69.6626 206.702 69.53 207.099 69.4429C207.501 69.352 207.904 69.28 208.31 69.227C208.84 69.1588 209.27 69.1077 209.599 69.0736C209.933 69.0357 210.175 68.9732 210.327 68.8861C210.482 68.799 210.56 68.6475 210.56 68.4316V68.3861C210.56 67.8255 210.406 67.3899 210.099 67.0793C209.796 66.7687 209.336 66.6134 208.719 66.6134C208.078 66.6134 207.577 66.7535 207.213 67.0338C206.849 67.3141 206.594 67.6134 206.446 67.9316L205.173 67.477C205.4 66.9467 205.703 66.5338 206.082 66.2384C206.465 65.9391 206.881 65.7308 207.332 65.6134C207.787 65.4922 208.234 65.4316 208.673 65.4316C208.953 65.4316 209.275 65.4656 209.639 65.5338C210.006 65.5982 210.361 65.7327 210.702 65.9372C211.046 66.1418 211.332 66.4505 211.56 66.8634C211.787 67.2762 211.9 67.8293 211.9 68.5225V74.2725H210.56V73.0906H210.491C210.4 73.28 210.249 73.4827 210.037 73.6986C209.825 73.9145 209.542 74.0982 209.19 74.2497C208.838 74.4012 208.408 74.477 207.9 74.477ZM208.105 73.2725C208.635 73.2725 209.082 73.1683 209.446 72.96C209.813 72.7516 210.09 72.4827 210.275 72.1531C210.465 71.8236 210.56 71.477 210.56 71.1134V69.8861C210.503 69.9543 210.378 70.0168 210.185 70.0736C209.995 70.1266 209.775 70.174 209.525 70.2156C209.279 70.2535 209.039 70.2876 208.804 70.3179C208.573 70.3444 208.385 70.3672 208.241 70.3861C207.893 70.4316 207.567 70.5054 207.264 70.6077C206.965 70.7062 206.722 70.8558 206.537 71.0566C206.355 71.2535 206.264 71.5225 206.264 71.8634C206.264 72.3293 206.436 72.6816 206.781 72.9202C207.13 73.155 207.571 73.2725 208.105 73.2725ZM214.348 74.2725V65.5452H215.643V66.8634H215.734C215.893 66.4316 216.181 66.0812 216.598 65.8122C217.015 65.5433 217.484 65.4088 218.007 65.4088C218.105 65.4088 218.229 65.4107 218.376 65.4145C218.524 65.4183 218.636 65.424 218.712 65.4316V66.7952C218.666 66.7838 218.562 66.7668 218.399 66.7441C218.24 66.7175 218.071 66.7043 217.893 66.7043C217.469 66.7043 217.09 66.7933 216.757 66.9713C216.427 67.1456 216.166 67.388 215.973 67.6986C215.783 68.0054 215.689 68.3558 215.689 68.7497V74.2725H214.348ZM225.801 70.7043V65.5452H227.142V74.2725H225.801V72.7952H225.71C225.506 73.2384 225.187 73.6153 224.756 73.9259C224.324 74.2327 223.778 74.3861 223.119 74.3861C222.574 74.3861 222.089 74.2668 221.665 74.0281C221.24 73.7857 220.907 73.4221 220.665 72.9372C220.422 72.4486 220.301 71.8331 220.301 71.0906V65.5452H221.642V70.9997C221.642 71.6361 221.82 72.1437 222.176 72.5225C222.536 72.9012 222.994 73.0906 223.551 73.0906C223.884 73.0906 224.223 73.0054 224.568 72.835C224.917 72.6645 225.208 72.4031 225.443 72.0509C225.682 71.6986 225.801 71.2497 225.801 70.7043ZM235.78 67.4997L234.575 67.8406C234.499 67.6399 234.388 67.4448 234.24 67.2554C234.096 67.0622 233.899 66.9031 233.649 66.7781C233.399 66.6531 233.079 66.5906 232.689 66.5906C232.155 66.5906 231.71 66.7137 231.354 66.96C231.001 67.2024 230.825 67.5111 230.825 67.8861C230.825 68.2194 230.946 68.4827 231.189 68.6759C231.431 68.8691 231.81 69.03 232.325 69.1588L233.621 69.477C234.401 69.6664 234.982 69.9562 235.365 70.3463C235.747 70.7327 235.939 71.2308 235.939 71.8406C235.939 72.3406 235.795 72.7876 235.507 73.1816C235.223 73.5755 234.825 73.8861 234.314 74.1134C233.802 74.3406 233.208 74.4543 232.53 74.4543C231.64 74.4543 230.903 74.2611 230.319 73.8747C229.736 73.4884 229.367 72.924 229.212 72.1816L230.484 71.8634C230.605 72.3331 230.835 72.6853 231.172 72.9202C231.513 73.155 231.958 73.2725 232.507 73.2725C233.132 73.2725 233.628 73.1399 233.996 72.8747C234.367 72.6058 234.552 72.2838 234.552 71.9088C234.552 71.6058 234.446 71.352 234.234 71.1475C234.022 70.9391 233.696 70.7838 233.257 70.6816L231.802 70.3406C231.003 70.1512 230.416 69.8577 230.041 69.46C229.67 69.0584 229.484 68.5566 229.484 67.9543C229.484 67.4619 229.622 67.0262 229.899 66.6475C230.179 66.2687 230.56 65.9713 231.041 65.7554C231.526 65.5395 232.075 65.4316 232.689 65.4316C233.552 65.4316 234.23 65.6209 234.723 65.9997C235.219 66.3785 235.571 66.8785 235.78 67.4997ZM239.207 71.0906L239.185 69.4316H239.457L243.275 65.5452H244.935L240.866 69.6588H240.753L239.207 71.0906ZM237.957 74.2725V62.6361H239.298V74.2725H237.957ZM243.503 74.2725L240.094 69.9543L241.048 69.0225L245.207 74.2725H243.503ZM246.66 74.2725V65.5452H248.001V74.2725H246.66ZM247.342 64.0906C247.081 64.0906 246.855 64.0016 246.666 63.8236C246.48 63.6456 246.388 63.4316 246.388 63.1816C246.388 62.9316 246.48 62.7175 246.666 62.5395C246.855 62.3615 247.081 62.2725 247.342 62.2725C247.604 62.2725 247.827 62.3615 248.013 62.5395C248.202 62.7175 248.297 62.9316 248.297 63.1816C248.297 63.4316 248.202 63.6456 248.013 63.8236C247.827 64.0016 247.604 64.0906 247.342 64.0906ZM254.116 74.4543C253.275 74.4543 252.55 74.2687 251.94 73.8975C251.334 73.5225 250.866 72.9997 250.537 72.3293C250.211 71.655 250.048 70.8709 250.048 69.977C250.048 69.0831 250.211 68.2952 250.537 67.6134C250.866 66.9278 251.325 66.3937 251.912 66.0111C252.503 65.6247 253.192 65.4316 253.98 65.4316C254.435 65.4316 254.883 65.5073 255.327 65.6588C255.77 65.8103 256.173 66.0566 256.537 66.3975C256.9 66.7346 257.19 67.1816 257.406 67.7384C257.622 68.2952 257.73 68.9808 257.73 69.7952V70.3634H251.003V69.2043H256.366C256.366 68.7119 256.268 68.2725 256.071 67.8861C255.878 67.4997 255.601 67.1948 255.241 66.9713C254.885 66.7478 254.465 66.6361 253.98 66.6361C253.446 66.6361 252.984 66.7687 252.594 67.0338C252.207 67.2952 251.91 67.6361 251.702 68.0566C251.493 68.477 251.389 68.9278 251.389 69.4088V70.1816C251.389 70.8406 251.503 71.3994 251.73 71.8577C251.961 72.3122 252.281 72.6588 252.69 72.8975C253.099 73.1323 253.575 73.2497 254.116 73.2497C254.469 73.2497 254.787 73.2005 255.071 73.102C255.359 72.9997 255.607 72.8482 255.815 72.6475C256.024 72.4429 256.185 72.1891 256.298 71.8861L257.594 72.2497C257.457 72.6891 257.228 73.0755 256.906 73.4088C256.584 73.7384 256.186 73.9959 255.713 74.1816C255.239 74.3634 254.707 74.4543 254.116 74.4543Z" fill="#010101"/>
<path d="M57.909 22.8787C57.8408 22.3029 57.5643 21.856 57.0794 21.5378C56.5946 21.2196 55.9999 21.0605 55.2953 21.0605C54.7802 21.0605 54.3294 21.1438 53.943 21.3105C53.5605 21.4772 53.2612 21.7063 53.0453 21.998C52.8332 22.2897 52.7271 22.6211 52.7271 22.9923C52.7271 23.3029 52.801 23.57 52.9487 23.7935C53.1002 24.0132 53.2934 24.1969 53.5283 24.3446C53.7631 24.4885 54.0093 24.6079 54.2669 24.7025C54.5245 24.7935 54.7612 24.8673 54.9771 24.9241L56.159 25.2423C56.462 25.3219 56.7991 25.4317 57.1703 25.5719C57.5453 25.712 57.9033 25.9033 58.2442 26.1457C58.5889 26.3844 58.873 26.6912 59.0965 27.0662C59.3199 27.4412 59.4317 27.9014 59.4317 28.4469C59.4317 29.0757 59.2669 29.6438 58.9374 30.1514C58.6116 30.659 58.1343 31.0624 57.5055 31.3616C56.8805 31.6609 56.1211 31.8105 55.2271 31.8105C54.3938 31.8105 53.6722 31.676 53.0624 31.4071C52.4563 31.1382 51.979 30.7632 51.6305 30.2821C51.2859 29.801 51.0908 29.2423 51.0453 28.606H52.4999C52.5377 29.0454 52.6855 29.409 52.943 29.6969C53.2044 29.981 53.534 30.1931 53.9317 30.3332C54.3332 30.4696 54.765 30.5378 55.2271 30.5378C55.765 30.5378 56.248 30.4507 56.676 30.2764C57.104 30.0984 57.443 29.8522 57.693 29.5378C57.943 29.2196 58.068 28.8484 58.068 28.4241C58.068 28.0378 57.9601 27.7234 57.7442 27.481C57.5283 27.2385 57.2442 27.0416 56.8919 26.89C56.5396 26.7385 56.159 26.606 55.7499 26.4923L54.318 26.0832C53.409 25.8219 52.6893 25.4488 52.159 24.9639C51.6287 24.4791 51.3635 23.8446 51.3635 23.0605C51.3635 22.409 51.5396 21.8408 51.8919 21.356C52.248 20.8673 52.7252 20.4885 53.3237 20.2196C53.926 19.9469 54.5984 19.8105 55.3408 19.8105C56.0908 19.8105 56.7574 19.945 57.3408 20.2139C57.9241 20.4791 58.3862 20.8427 58.7271 21.3048C59.0718 21.7669 59.2537 22.2916 59.2726 22.8787H57.909ZM62.9075 26.356V31.606H61.5666V19.9696H62.9075V24.2423H63.0212C63.2257 23.7916 63.5325 23.4336 63.9416 23.1685C64.3545 22.8995 64.9037 22.765 65.5894 22.765C66.1841 22.765 66.7049 22.8844 67.1519 23.123C67.5988 23.3579 67.9454 23.7196 68.1916 24.2082C68.4416 24.6931 68.5666 25.3105 68.5666 26.0605V31.606H67.2257V26.1514C67.2257 25.4582 67.0458 24.9222 66.6859 24.5435C66.3299 24.1609 65.8356 23.9696 65.203 23.9696C64.7636 23.9696 64.3697 24.0624 64.0212 24.248C63.6765 24.4336 63.4037 24.7044 63.203 25.0605C63.006 25.4166 62.9075 25.8484 62.9075 26.356ZM73.5879 31.8105C73.0349 31.8105 72.533 31.7063 72.0823 31.498C71.6315 31.2859 71.2735 30.981 71.0084 30.5832C70.7432 30.1817 70.6107 29.6969 70.6107 29.1287C70.6107 28.6287 70.7091 28.2234 70.9061 27.9128C71.1031 27.5984 71.3663 27.3522 71.6959 27.1741C72.0254 26.9961 72.3891 26.8635 72.7868 26.7764C73.1883 26.6855 73.5917 26.6135 73.997 26.5605C74.5273 26.4923 74.9573 26.4412 75.2868 26.4071C75.6201 26.3692 75.8626 26.3067 76.0141 26.2196C76.1694 26.1325 76.247 25.981 76.247 25.765V25.7196C76.247 25.159 76.0936 24.7234 75.7868 24.4128C75.4838 24.1022 75.0235 23.9469 74.4061 23.9469C73.766 23.9469 73.2641 24.087 72.9004 24.3673C72.5368 24.6476 72.2811 24.9469 72.1334 25.265L70.8607 24.8105C71.0879 24.2802 71.391 23.8673 71.7698 23.5719C72.1523 23.2726 72.569 23.0643 73.0198 22.9469C73.4743 22.8257 73.9213 22.765 74.3607 22.765C74.641 22.765 74.9629 22.7991 75.3266 22.8673C75.694 22.9317 76.0482 23.0662 76.3891 23.2707C76.7338 23.4753 77.0198 23.784 77.247 24.1969C77.4743 24.6097 77.5879 25.1628 77.5879 25.856V31.606H76.247V30.4241H76.1788C76.0879 30.6135 75.9364 30.8162 75.7243 31.0321C75.5122 31.248 75.23 31.4317 74.8777 31.5832C74.5254 31.7347 74.0955 31.8105 73.5879 31.8105ZM73.7925 30.606C74.3228 30.606 74.7698 30.5018 75.1334 30.2935C75.5008 30.0851 75.7773 29.8162 75.9629 29.4866C76.1523 29.1571 76.247 28.8105 76.247 28.4469V27.2196C76.1902 27.2878 76.0652 27.3503 75.872 27.4071C75.6826 27.4601 75.4629 27.5075 75.2129 27.5491C74.9667 27.587 74.7262 27.6211 74.4913 27.6514C74.2603 27.6779 74.0728 27.7007 73.9288 27.7196C73.5804 27.765 73.2546 27.8389 72.9516 27.9412C72.6523 28.0397 72.4099 28.1893 72.2243 28.39C72.0425 28.587 71.9516 28.856 71.9516 29.1969C71.9516 29.6628 72.1239 30.015 72.4686 30.2537C72.8171 30.4885 73.2584 30.606 73.7925 30.606ZM80.0354 31.606V22.8787H81.3308V24.1969H81.4217C81.5808 23.765 81.8687 23.4147 82.2854 23.1457C82.702 22.8768 83.1717 22.7423 83.6945 22.7423C83.793 22.7423 83.9161 22.7442 84.0638 22.748C84.2115 22.7518 84.3233 22.7575 84.399 22.765V24.1287C84.3536 24.1173 84.2494 24.1003 84.0865 24.0775C83.9274 24.051 83.7589 24.0378 83.5808 24.0378C83.1566 24.0378 82.7778 24.1268 82.4445 24.3048C82.1149 24.4791 81.8536 24.7215 81.6604 25.0321C81.471 25.3389 81.3763 25.6893 81.3763 26.0832V31.606H80.0354ZM89.382 31.7878C88.5411 31.7878 87.8157 31.6022 87.2058 31.231C86.5998 30.856 86.132 30.3332 85.8024 29.6628C85.4767 28.9885 85.3138 28.2044 85.3138 27.3105C85.3138 26.4166 85.4767 25.6287 85.8024 24.9469C86.132 24.2613 86.5903 23.7272 87.1774 23.3446C87.7683 22.9582 88.4577 22.765 89.2456 22.765C89.7002 22.765 90.149 22.8408 90.5922 22.9923C91.0354 23.1438 91.4388 23.39 91.8024 23.731C92.1661 24.0681 92.4558 24.515 92.6717 25.0719C92.8877 25.6287 92.9956 26.3143 92.9956 27.1287V27.6969H86.2683V26.5378H91.632C91.632 26.0454 91.5335 25.606 91.3365 25.2196C91.1433 24.8332 90.8668 24.5283 90.507 24.3048C90.1509 24.0813 89.7305 23.9696 89.2456 23.9696C88.7115 23.9696 88.2494 24.1022 87.8592 24.3673C87.4729 24.6287 87.1755 24.9696 86.9672 25.39C86.7589 25.8105 86.6547 26.2613 86.6547 26.7423V27.515C86.6547 28.1741 86.7683 28.7329 86.9956 29.1912C87.2267 29.6457 87.5467 29.9923 87.9558 30.231C88.3649 30.4658 88.8403 30.5832 89.382 30.5832C89.7342 30.5832 90.0524 30.534 90.3365 30.4355C90.6244 30.3332 90.8725 30.1817 91.0808 29.981C91.2892 29.7764 91.4502 29.5226 91.5638 29.2196L92.8592 29.5832C92.7229 30.0226 92.4937 30.409 92.1717 30.7423C91.8498 31.0719 91.452 31.3294 90.9786 31.515C90.5051 31.6969 89.9729 31.7878 89.382 31.7878ZM99.7172 31.606V19.9696H103.649C104.562 19.9696 105.308 20.1344 105.888 20.4639C106.471 20.7897 106.903 21.231 107.183 21.7878C107.463 22.3446 107.604 22.9658 107.604 23.6514C107.604 24.337 107.463 24.9601 107.183 25.5207C106.907 26.0813 106.479 26.5283 105.899 26.8616C105.319 27.1912 104.577 27.356 103.672 27.356H100.854V26.106H103.626C104.251 26.106 104.753 25.998 105.132 25.7821C105.511 25.5662 105.785 25.2745 105.956 24.9071C106.13 24.5359 106.217 24.1173 106.217 23.6514C106.217 23.1855 106.13 22.7688 105.956 22.4014C105.785 22.034 105.509 21.7461 105.126 21.5378C104.744 21.3257 104.236 21.2196 103.604 21.2196H101.126V31.606H99.7172ZM113.143 31.7878C112.355 31.7878 111.664 31.6003 111.069 31.2253C110.479 30.8503 110.016 30.3257 109.683 29.6514C109.354 28.9772 109.189 28.1893 109.189 27.2878C109.189 26.3787 109.354 25.5851 109.683 24.9071C110.016 24.2291 110.479 23.7025 111.069 23.3275C111.664 22.9525 112.355 22.765 113.143 22.765C113.931 22.765 114.621 22.9525 115.212 23.3275C115.806 23.7025 116.268 24.2291 116.598 24.9071C116.931 25.5851 117.098 26.3787 117.098 27.2878C117.098 28.1893 116.931 28.9772 116.598 29.6514C116.268 30.3257 115.806 30.8503 115.212 31.2253C114.621 31.6003 113.931 31.7878 113.143 31.7878ZM113.143 30.5832C113.742 30.5832 114.234 30.4298 114.621 30.123C115.007 29.8162 115.293 29.4128 115.479 28.9128C115.664 28.4128 115.757 27.8711 115.757 27.2878C115.757 26.7044 115.664 26.1609 115.479 25.6571C115.293 25.1533 115.007 24.7461 114.621 24.4355C114.234 24.1249 113.742 23.9696 113.143 23.9696C112.545 23.9696 112.052 24.1249 111.666 24.4355C111.28 24.7461 110.994 25.1533 110.808 25.6571C110.622 26.1609 110.53 26.7044 110.53 27.2878C110.53 27.8711 110.622 28.4128 110.808 28.9128C110.994 29.4128 111.28 29.8162 111.666 30.123C112.052 30.4298 112.545 30.5832 113.143 30.5832ZM125.327 24.8332L124.122 25.1741C124.046 24.9734 123.935 24.7783 123.787 24.5889C123.643 24.3957 123.446 24.2366 123.196 24.1116C122.946 23.9866 122.626 23.9241 122.236 23.9241C121.702 23.9241 121.256 24.0472 120.9 24.2935C120.548 24.5359 120.372 24.8446 120.372 25.2196C120.372 25.5529 120.493 25.8162 120.736 26.0094C120.978 26.2025 121.357 26.3635 121.872 26.4923L123.167 26.8105C123.948 26.9999 124.529 27.2897 124.912 27.6798C125.294 28.0662 125.486 28.5643 125.486 29.1741C125.486 29.6741 125.342 30.1211 125.054 30.515C124.77 30.909 124.372 31.2196 123.861 31.4469C123.349 31.6741 122.755 31.7878 122.077 31.7878C121.186 31.7878 120.45 31.5946 119.866 31.2082C119.283 30.8219 118.914 30.2575 118.758 29.515L120.031 29.1969C120.152 29.6666 120.381 30.0188 120.719 30.2537C121.06 30.4885 121.505 30.606 122.054 30.606C122.679 30.606 123.175 30.4734 123.542 30.2082C123.914 29.9393 124.099 29.6173 124.099 29.2423C124.099 28.9393 123.993 28.6855 123.781 28.481C123.569 28.2726 123.243 28.1173 122.804 28.015L121.349 27.6741C120.55 27.4847 119.963 27.1912 119.588 26.7935C119.217 26.3919 119.031 25.89 119.031 25.2878C119.031 24.7954 119.169 24.3597 119.446 23.981C119.726 23.6022 120.107 23.3048 120.588 23.0889C121.073 22.873 121.622 22.765 122.236 22.765C123.099 22.765 123.777 22.9544 124.27 23.3332C124.766 23.712 125.118 24.212 125.327 24.8332ZM131.3 22.8787V24.015H126.777V22.8787H131.3ZM128.095 20.7878H129.436V29.106C129.436 29.4847 129.491 29.7688 129.601 29.9582C129.714 30.1438 129.858 30.2688 130.033 30.3332C130.211 30.3938 130.398 30.4241 130.595 30.4241C130.743 30.4241 130.864 30.4166 130.959 30.4014C131.053 30.3825 131.129 30.3673 131.186 30.356L131.459 31.5605C131.368 31.5946 131.241 31.6287 131.078 31.6628C130.915 31.7007 130.709 31.7196 130.459 31.7196C130.08 31.7196 129.709 31.6382 129.345 31.4753C128.985 31.3124 128.686 31.0643 128.447 30.731C128.212 30.3976 128.095 29.9772 128.095 29.4696V20.7878Z" fill="#010101"/>
<path opacity="0.4" d="M337.553 51.1489H0.0527344V88.4819H337.553V51.1489Z" fill="#939598"/>
<path d="M23.2018 80.653C29.4636 80.653 34.5398 75.8007 34.5398 69.815C34.5398 63.8294 29.4636 58.9771 23.2018 58.9771C16.94 58.9771 11.8638 63.8294 11.8638 69.815C11.8638 75.8007 16.94 80.653 23.2018 80.653Z" fill="#C83B27"/>
<path d="M22.1325 64.9671L24.0927 68.3123L26.053 64.9671H27.5018L24.8598 69.058L27.5018 73.1489H26.053L24.0927 69.9742L22.1325 73.1489H20.6836L23.2831 69.058L20.6836 64.9671H22.1325Z" fill="white"/>
<path d="M23.2018 124.48C29.4636 124.48 34.5398 119.628 34.5398 113.642C34.5398 107.656 29.4636 102.804 23.2018 102.804C16.94 102.804 11.8638 107.656 11.8638 113.642C11.8638 119.628 16.94 124.48 23.2018 124.48Z" fill="#ECB41F"/>
<path d="M23.6694 108.793L23.57 116.111H22.4166L22.3172 108.793H23.6694ZM22.9933 119.055C22.748 119.055 22.5376 118.967 22.3619 118.791C22.1862 118.615 22.0984 118.405 22.0984 118.16C22.0984 117.914 22.1862 117.704 22.3619 117.528C22.5376 117.353 22.748 117.265 22.9933 117.265C23.2386 117.265 23.449 117.353 23.6247 117.528C23.8004 117.704 23.8882 117.914 23.8882 118.16C23.8882 118.322 23.8468 118.471 23.7639 118.607C23.6843 118.743 23.5766 118.852 23.4407 118.935C23.3082 119.015 23.159 119.055 22.9933 119.055Z" fill="white"/>
<path d="M27.6439 25.7889C29.6322 25.7889 31.2439 24.1771 31.2439 22.1889C31.2439 20.2006 29.6322 18.5889 27.6439 18.5889C25.6557 18.5889 24.0439 20.2006 24.0439 22.1889C24.0439 24.1771 25.6557 25.7889 27.6439 25.7889Z" fill="#2FA348"/>
<path d="M27.6439 40.189C29.6322 40.189 31.2439 38.5772 31.2439 36.589C31.2439 34.6008 29.6322 32.989 27.6439 32.989C25.6557 32.989 24.0439 34.6008 24.0439 36.589C24.0439 38.5772 25.6557 40.189 27.6439 40.189Z" fill="#2FA348"/>
<path d="M14.4438 32.9891C16.432 32.9891 18.0438 31.3773 18.0438 29.3891C18.0438 27.4008 16.432 25.7891 14.4438 25.7891C12.4555 25.7891 10.8438 27.4008 10.8438 29.3891C10.8438 31.3773 12.4555 32.9891 14.4438 32.9891Z" fill="#2FA348"/>
<path d="M14.4438 29.389L27.6438 22.189" stroke="#2AA349" stroke-width="2" stroke-miterlimit="10"/>
<path d="M14.4438 29.3889L27.6438 36.5889" stroke="#2AA349" stroke-width="2" stroke-miterlimit="10"/>
</svg>
