<svg width="368" height="173" viewBox="0 0 368 173" fill="none" xmlns="http://www.w3.org/2000/svg">
<path d="M337.947 3.14697H0.5V168.273H337.947V3.14697Z" fill="#F5F6F6"/>
<path d="M337.947 147.988C337.947 154.8 332.363 160.322 325.475 160.322H12.972C6.084 160.322 0.5 154.8 0.5 147.988V24.814C0.5 18.002 6.084 12.48 12.972 12.48H325.474C332.362 12.48 337.946 18.002 337.946 24.814L337.947 147.988Z" fill="white"/>
<path d="M17.8388 77.1219V88.031H16.5178V77.1219H17.8388ZM21.425 77.1219V78.0807C21.425 78.3719 21.3718 78.6826 21.2652 79.0129C21.1622 79.3396 21.0095 79.6574 20.8071 79.9664C20.6083 80.2718 20.3668 80.5381 20.0827 80.7654L19.4009 80.2114C19.6246 79.8918 19.8181 79.5598 19.9815 79.2153C20.1484 78.8673 20.2318 78.4962 20.2318 78.102V77.1219H21.425ZM22.7634 88.031V79.8492H23.9778V81.1276H24.0844C24.2548 80.6908 24.5301 80.3517 24.91 80.1102C25.29 79.8652 25.7463 79.7427 26.279 79.7427C26.8188 79.7427 27.268 79.8652 27.6266 80.1102C27.9889 80.3517 28.2712 80.6908 28.4736 81.1276H28.5588C28.7683 80.705 29.0826 80.3694 29.5016 80.1208C29.9207 79.8687 30.4232 79.7427 31.0091 79.7427C31.7406 79.7427 32.339 79.9717 32.8042 80.4298C33.2694 80.8843 33.502 81.5928 33.502 82.5552V88.031H32.2449V82.5552C32.2449 81.9515 32.0798 81.52 31.7495 81.2608C31.4193 81.0015 31.0304 80.8719 30.583 80.8719C30.0077 80.8719 29.562 81.0459 29.246 81.3939C28.9299 81.7384 28.7719 82.1752 28.7719 82.7043V88.031H27.4935V82.4273C27.4935 81.9621 27.3426 81.5875 27.0407 81.3034C26.7389 81.0157 26.35 80.8719 25.8742 80.8719C25.5475 80.8719 25.2421 80.9589 24.958 81.1329C24.6774 81.3069 24.4502 81.5484 24.2761 81.8574C24.1057 82.1628 24.0205 82.5161 24.0205 82.9174V88.031H22.7634ZM42.4269 88.2228C41.9084 88.2228 41.4379 88.1251 41.0153 87.9298C40.5927 87.7309 40.2571 87.4451 40.0086 87.0722C39.76 86.6958 39.6357 86.2412 39.6357 85.7086C39.6357 85.2398 39.728 84.8598 39.9127 84.5686C40.0973 84.2739 40.3441 84.0431 40.6531 83.8762C40.962 83.7093 41.303 83.585 41.6758 83.5033C42.0522 83.4181 42.4304 83.3506 42.8104 83.3009C43.3076 83.237 43.7106 83.189 44.0196 83.1571C44.3321 83.1216 44.5593 83.063 44.7014 82.9813C44.847 82.8996 44.9198 82.7576 44.9198 82.5552V82.5125C44.9198 81.987 44.776 81.5786 44.4883 81.2874C44.2042 80.9962 43.7728 80.8506 43.1939 80.8506C42.5938 80.8506 42.1233 80.982 41.7824 81.2448C41.4415 81.5076 41.2017 81.7881 41.0633 82.0864L39.8701 81.6603C40.0831 81.1631 40.3672 80.776 40.7223 80.499C41.081 80.2185 41.4716 80.0232 41.8942 79.9131C42.3204 79.7995 42.7394 79.7427 43.1513 79.7427C43.4141 79.7427 43.716 79.7746 44.0569 79.8385C44.4013 79.8989 44.7334 80.025 45.053 80.2167C45.3761 80.4085 45.6442 80.6979 45.8573 81.085C46.0704 81.4721 46.1769 81.9905 46.1769 82.6404V88.031H44.9198V86.9231H44.8559C44.7706 87.1006 44.6286 87.2906 44.4297 87.493C44.2309 87.6954 43.9663 87.8677 43.6361 88.0097C43.3058 88.1517 42.9027 88.2228 42.4269 88.2228ZM42.6187 87.0935C43.1158 87.0935 43.5348 86.9958 43.8758 86.8005C44.2202 86.6052 44.4794 86.3531 44.6535 86.0441C44.831 85.7352 44.9198 85.4103 44.9198 85.0694V83.9188C44.8665 83.9827 44.7493 84.0413 44.5682 84.0946C44.3907 84.1443 44.1847 84.1887 43.9503 84.2277C43.7195 84.2633 43.494 84.2952 43.2738 84.3236C43.0572 84.3485 42.8814 84.3698 42.7465 84.3875C42.4198 84.4302 42.1144 84.4994 41.8303 84.5953C41.5498 84.6876 41.3225 84.8279 41.1485 85.0161C40.978 85.2008 40.8928 85.4529 40.8928 85.7725C40.8928 86.2093 41.0544 86.5395 41.3775 86.7633C41.7042 86.9834 42.1179 87.0935 42.6187 87.0935ZM57.8464 84.6858V79.8492H59.1035V88.031H57.8464V86.6461H57.7611C57.5694 87.0615 57.2711 87.4149 56.8663 87.7061C56.4614 87.9937 55.9501 88.1375 55.3322 88.1375C54.8208 88.1375 54.3663 88.0257 53.9685 87.802C53.5708 87.5747 53.2583 87.2338 53.031 86.7792C52.8038 86.3211 52.6901 85.7441 52.6901 85.0481V79.8492H53.9472V84.9628C53.9472 85.5594 54.1141 86.0353 54.4479 86.3904C54.7853 86.7455 55.215 86.9231 55.737 86.9231C56.0495 86.9231 56.3673 86.8432 56.6905 86.6833C57.0172 86.5235 57.2906 86.2785 57.5108 85.9483C57.7345 85.618 57.8464 85.1972 57.8464 84.6858ZM67.2014 81.6816L66.0721 82.0012C66.0011 81.813 65.8964 81.6301 65.7579 81.4525C65.6229 81.2714 65.4383 81.1223 65.2039 81.0051C64.9695 80.8879 64.6694 80.8293 64.3037 80.8293C63.803 80.8293 63.3857 80.9447 63.0519 81.1755C62.7216 81.4028 62.5565 81.6922 62.5565 82.0438C62.5565 82.3563 62.6701 82.6031 62.8974 82.7842C63.1247 82.9653 63.4798 83.1162 63.9628 83.237L65.1772 83.5353C65.9088 83.7128 66.4539 83.9845 66.8125 84.3503C67.1712 84.7125 67.3505 85.1794 67.3505 85.7512C67.3505 86.2199 67.2156 86.639 66.9457 87.0083C66.6794 87.3776 66.3065 87.6688 65.8271 87.8819C65.3477 88.0949 64.7902 88.2015 64.1545 88.2015C63.32 88.2015 62.6293 88.0204 62.0824 87.6581C61.5356 87.2959 61.1893 86.7668 61.0437 86.0708L62.2369 85.7725C62.3505 86.2128 62.5654 86.5431 62.8814 86.7633C63.201 86.9834 63.6183 87.0935 64.1332 87.0935C64.7191 87.0935 65.1843 86.9692 65.5288 86.7206C65.8768 86.4685 66.0508 86.1667 66.0508 85.8151C66.0508 85.531 65.9514 85.2931 65.7525 85.1013C65.5537 84.906 65.2483 84.7604 64.8363 84.6645L63.4727 84.3449C62.7234 84.1674 62.173 83.8922 61.8214 83.5193C61.4734 83.1429 61.2994 82.6723 61.2994 82.1077C61.2994 81.6461 61.429 81.2377 61.6883 80.8826C61.951 80.5275 62.3079 80.2487 62.7589 80.0463C63.2135 79.8439 63.7284 79.7427 64.3037 79.7427C65.1133 79.7427 65.749 79.9202 66.2106 80.2753C66.6758 80.6304 67.0061 81.0992 67.2014 81.6816ZM72.6733 88.2015C71.8849 88.2015 71.2049 88.0275 70.6331 87.6794C70.0649 87.3279 69.6264 86.8378 69.3174 86.2093C69.012 85.5772 68.8593 84.8421 68.8593 84.004C68.8593 83.1659 69.012 82.4273 69.3174 81.7881C69.6264 81.1454 70.0561 80.6446 70.6065 80.286C71.1605 79.9238 71.8068 79.7427 72.5454 79.7427C72.9715 79.7427 73.3924 79.8137 73.8078 79.9557C74.2233 80.0978 74.6015 80.3286 74.9424 80.6482C75.2833 80.9642 75.555 81.3833 75.7574 81.9053C75.9598 82.4273 76.061 83.0701 76.061 83.8336V84.3662H69.7542V83.2796H74.7826C74.7826 82.8179 74.6903 82.406 74.5056 82.0438C74.3245 81.6816 74.0653 81.3957 73.7279 81.1862C73.3941 80.9767 73 80.8719 72.5454 80.8719C72.0447 80.8719 71.6115 80.9962 71.2457 81.2448C70.8835 81.4898 70.6047 81.8094 70.4094 82.2036C70.2141 82.5978 70.1164 83.0204 70.1164 83.4713V84.1958C70.1164 84.8137 70.223 85.3375 70.436 85.7672C70.6527 86.1933 70.9527 86.5182 71.3362 86.7419C71.7198 86.9621 72.1654 87.0722 72.6733 87.0722C73.0035 87.0722 73.3018 87.026 73.5681 86.9337C73.838 86.8378 74.0706 86.6958 74.2659 86.5076C74.4612 86.3158 74.6122 86.0779 74.7187 85.7938L75.9332 86.1347C75.8054 86.5466 75.5905 86.9088 75.2887 87.2213C74.9868 87.5303 74.6139 87.7718 74.1701 87.9458C73.7262 88.1162 73.2272 88.2015 72.6733 88.2015ZM77.9733 88.031V79.8492H79.1878V81.085H79.273C79.4222 80.6802 79.6921 80.3517 80.0827 80.0995C80.4733 79.8474 80.9137 79.7213 81.4037 79.7213C81.496 79.7213 81.6115 79.7231 81.75 79.7267C81.8885 79.7302 81.9932 79.7356 82.0642 79.7427V81.0211C82.0216 81.0104 81.924 80.9944 81.7713 80.9731C81.6221 80.9483 81.4641 80.9358 81.2972 80.9358C80.8995 80.9358 80.5443 81.0193 80.2318 81.1862C79.9229 81.3495 79.6779 81.5768 79.4968 81.868C79.3192 82.1557 79.2304 82.4841 79.2304 82.8534V88.031H77.9733ZM91.3314 79.8492V80.9145H87.0913V79.8492H91.3314ZM88.3271 77.889H89.5842V85.6873C89.5842 86.0424 89.6357 86.3087 89.7387 86.4863C89.8452 86.6603 89.9802 86.7775 90.1435 86.8378C90.3104 86.8946 90.4862 86.9231 90.6709 86.9231C90.8093 86.9231 90.923 86.9159 91.0118 86.9017C91.1005 86.884 91.1716 86.8698 91.2248 86.8591L91.4805 87.9884C91.3953 88.0204 91.2763 88.0523 91.1236 88.0843C90.9709 88.1198 90.7774 88.1375 90.543 88.1375C90.1879 88.1375 89.8399 88.0612 89.499 87.9085C89.1616 87.7558 88.8811 87.5232 88.6574 87.2107C88.4372 86.8982 88.3271 86.504 88.3271 86.0282V77.889ZM94.6552 83.1091V88.031H93.3981V77.1219H94.6552V81.1276H94.7618C94.9535 80.705 95.2412 80.3694 95.6247 80.1208C96.0118 79.8687 96.5267 79.7427 97.1694 79.7427C97.727 79.7427 98.2152 79.8545 98.6343 80.0782C99.0533 80.2984 99.3782 80.6375 99.6091 81.0956C99.8434 81.5502 99.9606 82.129 99.9606 82.8321V88.031H98.7035V82.9174C98.7035 82.2675 98.5348 81.765 98.1975 81.4099C97.8637 81.0512 97.4003 80.8719 96.8072 80.8719C96.3953 80.8719 96.026 80.9589 95.6993 81.1329C95.3761 81.3069 95.1204 81.5608 94.9322 81.8946C94.7476 82.2284 94.6552 82.6333 94.6552 83.1091ZM104.668 88.2228C104.15 88.2228 103.679 88.1251 103.257 87.9298C102.834 87.7309 102.498 87.4451 102.25 87.0722C102.001 86.6958 101.877 86.2412 101.877 85.7086C101.877 85.2398 101.969 84.8598 102.154 84.5686C102.339 84.2739 102.585 84.0431 102.894 83.8762C103.203 83.7093 103.544 83.585 103.917 83.5033C104.293 83.4181 104.672 83.3506 105.052 83.3009C105.549 83.237 105.952 83.189 106.261 83.1571C106.573 83.1216 106.801 83.063 106.943 82.9813C107.088 82.8996 107.161 82.7576 107.161 82.5552V82.5125C107.161 81.987 107.017 81.5786 106.73 81.2874C106.445 80.9962 106.014 80.8506 105.435 80.8506C104.835 80.8506 104.364 80.982 104.024 81.2448C103.683 81.5076 103.443 81.7881 103.304 82.0864L102.111 81.6603C102.324 81.1631 102.608 80.776 102.964 80.499C103.322 80.2185 103.713 80.0232 104.135 79.9131C104.562 79.7995 104.981 79.7427 105.393 79.7427C105.655 79.7427 105.957 79.7746 106.298 79.8385C106.643 79.8989 106.975 80.025 107.294 80.2167C107.617 80.4085 107.885 80.6979 108.098 81.085C108.312 81.4721 108.418 81.9905 108.418 82.6404V88.031H107.161V86.9231H107.097C107.012 87.1006 106.87 87.2906 106.671 87.493C106.472 87.6954 106.208 87.8677 105.877 88.0097C105.547 88.1517 105.144 88.2228 104.668 88.2228ZM104.86 87.0935C105.357 87.0935 105.776 86.9958 106.117 86.8005C106.461 86.6052 106.721 86.3531 106.895 86.0441C107.072 85.7352 107.161 85.4103 107.161 85.0694V83.9188C107.108 83.9827 106.991 84.0413 106.809 84.0946C106.632 84.1443 106.426 84.1887 106.192 84.2277C105.961 84.2633 105.735 84.2952 105.515 84.3236C105.298 84.3485 105.123 84.3698 104.988 84.3875C104.661 84.4302 104.356 84.4994 104.072 84.5953C103.791 84.6876 103.564 84.8279 103.39 85.0161C103.219 85.2008 103.134 85.4529 103.134 85.7725C103.134 86.2093 103.296 86.5395 103.619 86.7633C103.945 86.9834 104.359 87.0935 104.86 87.0935ZM114.271 79.8492V80.9145H110.031V79.8492H114.271ZM111.267 77.889H112.524V85.6873C112.524 86.0424 112.575 86.3087 112.678 86.4863C112.785 86.6603 112.92 86.7775 113.083 86.8378C113.25 86.8946 113.426 86.9231 113.61 86.9231C113.749 86.9231 113.862 86.9159 113.951 86.9017C114.04 86.884 114.111 86.8698 114.164 86.8591L114.42 87.9884C114.335 88.0204 114.216 88.0523 114.063 88.0843C113.91 88.1198 113.717 88.1375 113.482 88.1375C113.127 88.1375 112.779 88.0612 112.438 87.9085C112.101 87.7558 111.821 87.5232 111.597 87.2107C111.377 86.8982 111.267 86.504 111.267 86.0282V77.889ZM120.381 91.0992V79.8492H121.595V81.1489H121.744C121.837 81.0069 121.964 80.8257 122.128 80.6056C122.295 80.3819 122.533 80.183 122.841 80.009C123.154 79.8314 123.577 79.7427 124.109 79.7427C124.798 79.7427 125.405 79.9149 125.931 80.2593C126.457 80.6038 126.867 81.0921 127.161 81.7242C127.456 82.3563 127.604 83.102 127.604 83.9614C127.604 84.8279 127.456 85.5789 127.161 86.2146C126.867 86.8467 126.458 87.3368 125.936 87.6848C125.414 88.0292 124.812 88.2015 124.131 88.2015C123.605 88.2015 123.184 88.1145 122.868 87.9405C122.552 87.7629 122.309 87.5623 122.138 87.3385C121.968 87.1113 121.837 86.9231 121.744 86.7739H121.638V91.0992H120.381ZM121.616 83.9401C121.616 84.558 121.707 85.1031 121.888 85.5754C122.069 86.0441 122.334 86.4117 122.682 86.678C123.03 86.9408 123.456 87.0722 123.96 87.0722C124.486 87.0722 124.924 86.9337 125.276 86.6567C125.631 86.3762 125.897 85.9998 126.075 85.5275C126.256 85.0516 126.346 84.5225 126.346 83.9401C126.346 83.3648 126.258 82.8463 126.08 82.3847C125.906 81.9195 125.642 81.552 125.286 81.2821C124.935 81.0086 124.493 80.8719 123.96 80.8719C123.449 80.8719 123.019 81.0015 122.671 81.2608C122.323 81.5164 122.06 81.8751 121.883 82.3368C121.705 82.7949 121.616 83.3293 121.616 83.9401ZM132.845 88.2015C132.106 88.2015 131.458 88.0257 130.901 87.6741C130.347 87.3226 129.914 86.8307 129.601 86.1986C129.292 85.5665 129.138 84.8279 129.138 83.9827C129.138 83.1304 129.292 82.3865 129.601 81.7508C129.914 81.1152 130.347 80.6216 130.901 80.27C131.458 79.9184 132.106 79.7427 132.845 79.7427C133.584 79.7427 134.23 79.9184 134.784 80.27C135.341 80.6216 135.775 81.1152 136.084 81.7508C136.396 82.3865 136.552 83.1304 136.552 83.9827C136.552 84.8279 136.396 85.5665 136.084 86.1986C135.775 86.8307 135.341 87.3226 134.784 87.6741C134.23 88.0257 133.584 88.2015 132.845 88.2015ZM132.845 87.0722C133.406 87.0722 133.868 86.9284 134.23 86.6407C134.592 86.3531 134.86 85.9749 135.034 85.5061C135.208 85.0374 135.295 84.5296 135.295 83.9827C135.295 83.4358 135.208 82.9262 135.034 82.4539C134.86 81.9816 134.592 81.5999 134.23 81.3087C133.868 81.0175 133.406 80.8719 132.845 80.8719C132.284 80.8719 131.822 81.0175 131.46 81.3087C131.098 81.5999 130.83 81.9816 130.656 82.4539C130.482 82.9262 130.395 83.4358 130.395 83.9827C130.395 84.5296 130.482 85.0374 130.656 85.5061C130.83 85.9749 131.098 86.3531 131.46 86.6407C131.822 86.9284 132.284 87.0722 132.845 87.0722ZM144.267 81.6816L143.138 82.0012C143.067 81.813 142.962 81.6301 142.823 81.4525C142.688 81.2714 142.504 81.1223 142.269 81.0051C142.035 80.8879 141.735 80.8293 141.369 80.8293C140.868 80.8293 140.451 80.9447 140.117 81.1755C139.787 81.4028 139.622 81.6922 139.622 82.0438C139.622 82.3563 139.736 82.6031 139.963 82.7842C140.19 82.9653 140.545 83.1162 141.028 83.237L142.243 83.5353C142.974 83.7128 143.519 83.9845 143.878 84.3503C144.237 84.7125 144.416 85.1794 144.416 85.7512C144.416 86.2199 144.281 86.639 144.011 87.0083C143.745 87.3776 143.372 87.6688 142.893 87.8819C142.413 88.0949 141.856 88.2015 141.22 88.2015C140.385 88.2015 139.695 88.0204 139.148 87.6581C138.601 87.2959 138.255 86.7668 138.109 86.0708L139.302 85.7725C139.416 86.2128 139.631 86.5431 139.947 86.7633C140.266 86.9834 140.684 87.0935 141.199 87.0935C141.785 87.0935 142.25 86.9692 142.594 86.7206C142.942 86.4685 143.116 86.1667 143.116 85.8151C143.116 85.531 143.017 85.2931 142.818 85.1013C142.619 84.906 142.314 84.7604 141.902 84.6645L140.538 84.3449C139.789 84.1674 139.238 83.8922 138.887 83.5193C138.539 83.1429 138.365 82.6723 138.365 82.1077C138.365 81.6461 138.494 81.2377 138.754 80.8826C139.016 80.5275 139.373 80.2487 139.824 80.0463C140.279 79.8439 140.794 79.7427 141.369 79.7427C142.179 79.7427 142.814 79.9202 143.276 80.2753C143.741 80.6304 144.072 81.0992 144.267 81.6816ZM149.867 79.8492V80.9145H145.626V79.8492H149.867ZM146.862 77.889H148.119V85.6873C148.119 86.0424 148.171 86.3087 148.274 86.4863C148.38 86.6603 148.515 86.7775 148.679 86.8378C148.846 86.8946 149.021 86.9231 149.206 86.9231C149.345 86.9231 149.458 86.9159 149.547 86.9017C149.636 86.884 149.707 86.8698 149.76 86.8591L150.016 87.9884C149.93 88.0204 149.811 88.0523 149.659 88.0843C149.506 88.1198 149.313 88.1375 149.078 88.1375C148.723 88.1375 148.375 88.0612 148.034 87.9085C147.697 87.7558 147.416 87.5232 147.193 87.2107C146.972 86.8982 146.862 86.504 146.862 86.0282V77.889ZM157.406 81.6816L156.277 82.0012C156.206 81.813 156.101 81.6301 155.963 81.4525C155.828 81.2714 155.643 81.1223 155.409 81.0051C155.175 80.8879 154.875 80.8293 154.509 80.8293C154.008 80.8293 153.591 80.9447 153.257 81.1755C152.927 81.4028 152.762 81.6922 152.762 82.0438C152.762 82.3563 152.875 82.6031 153.102 82.7842C153.33 82.9653 153.685 83.1162 154.168 83.237L155.382 83.5353C156.114 83.7128 156.659 83.9845 157.018 84.3503C157.376 84.7125 157.556 85.1794 157.556 85.7512C157.556 86.2199 157.421 86.639 157.151 87.0083C156.884 87.3776 156.512 87.6688 156.032 87.8819C155.553 88.0949 154.995 88.2015 154.36 88.2015C153.525 88.2015 152.834 88.0204 152.288 87.6581C151.741 87.2959 151.394 86.7668 151.249 86.0708L152.442 85.7725C152.556 86.2128 152.77 86.5431 153.087 86.7633C153.406 86.9834 153.823 87.0935 154.338 87.0935C154.924 87.0935 155.389 86.9692 155.734 86.7206C156.082 86.4685 156.256 86.1667 156.256 85.8151C156.256 85.531 156.156 85.2931 155.958 85.1013C155.759 84.906 155.453 84.7604 155.041 84.6645L153.678 84.3449C152.928 84.1674 152.378 83.8922 152.027 83.5193C151.678 83.1429 151.504 82.6723 151.504 82.1077C151.504 81.6461 151.634 81.2377 151.893 80.8826C152.156 80.5275 152.513 80.2487 152.964 80.0463C153.419 79.8439 153.933 79.7427 154.509 79.7427C155.318 79.7427 155.954 79.9202 156.416 80.2753C156.881 80.6304 157.211 81.0992 157.406 81.6816ZM169.462 81.6816L168.333 82.0012C168.262 81.813 168.157 81.6301 168.019 81.4525C167.884 81.2714 167.699 81.1223 167.465 81.0051C167.23 80.8879 166.93 80.8293 166.564 80.8293C166.064 80.8293 165.646 80.9447 165.313 81.1755C164.982 81.4028 164.817 81.6922 164.817 82.0438C164.817 82.3563 164.931 82.6031 165.158 82.7842C165.385 82.9653 165.741 83.1162 166.223 83.237L167.438 83.5353C168.17 83.7128 168.715 83.9845 169.073 84.3503C169.432 84.7125 169.611 85.1794 169.611 85.7512C169.611 86.2199 169.476 86.639 169.206 87.0083C168.94 87.3776 168.567 87.6688 168.088 87.8819C167.608 88.0949 167.051 88.2015 166.415 88.2015C165.581 88.2015 164.89 88.0204 164.343 87.6581C163.796 87.2959 163.45 86.7668 163.304 86.0708L164.498 85.7725C164.611 86.2128 164.826 86.5431 165.142 86.7633C165.462 86.9834 165.879 87.0935 166.394 87.0935C166.98 87.0935 167.445 86.9692 167.79 86.7206C168.138 86.4685 168.312 86.1667 168.312 85.8151C168.312 85.531 168.212 85.2931 168.013 85.1013C167.814 84.906 167.509 84.7604 167.097 84.6645L165.733 84.3449C164.984 84.1674 164.434 83.8922 164.082 83.5193C163.734 83.1429 163.56 82.6723 163.56 82.1077C163.56 81.6461 163.69 81.2377 163.949 80.8826C164.212 80.5275 164.569 80.2487 165.02 80.0463C165.474 79.8439 165.989 79.7427 166.564 79.7427C167.374 79.7427 168.01 79.9202 168.471 80.2753C168.937 80.6304 169.267 81.0992 169.462 81.6816ZM175.062 79.8492V80.9145H170.822V79.8492H175.062ZM172.058 77.889H173.315V85.6873C173.315 86.0424 173.366 86.3087 173.469 86.4863C173.576 86.6603 173.711 86.7775 173.874 86.8378C174.041 86.8946 174.217 86.9231 174.401 86.9231C174.54 86.9231 174.653 86.9159 174.742 86.9017C174.831 86.884 174.902 86.8698 174.955 86.8591L175.211 87.9884C175.126 88.0204 175.007 88.0523 174.854 88.0843C174.701 88.1198 174.508 88.1375 174.273 88.1375C173.918 88.1375 173.57 88.0612 173.229 87.9085C172.892 87.7558 172.612 87.5232 172.388 87.2107C172.168 86.8982 172.058 86.504 172.058 86.0282V77.889ZM182.109 84.6858V79.8492H183.366V88.031H182.109V86.6461H182.024C181.832 87.0615 181.534 87.4149 181.129 87.7061C180.724 87.9937 180.213 88.1375 179.595 88.1375C179.083 88.1375 178.629 88.0257 178.231 87.802C177.833 87.5747 177.521 87.2338 177.294 86.7792C177.066 86.3211 176.953 85.7441 176.953 85.0481V79.8492H178.21V84.9628C178.21 85.5594 178.377 86.0353 178.711 86.3904C179.048 86.7455 179.478 86.9231 180 86.9231C180.312 86.9231 180.63 86.8432 180.953 86.6833C181.28 86.5235 181.553 86.2785 181.773 85.9483C181.997 85.618 182.109 85.1972 182.109 84.6858ZM189.312 79.8492V80.9145H184.902V79.8492H189.312ZM186.223 88.031V78.7199C186.223 78.2512 186.333 77.8606 186.553 77.5481C186.773 77.2356 187.059 77.0012 187.41 76.8449C187.762 76.6887 188.133 76.6106 188.524 76.6106C188.833 76.6106 189.085 76.6354 189.28 76.6851C189.475 76.7348 189.621 76.781 189.717 76.8236L189.355 77.9103C189.291 77.889 189.202 77.8623 189.088 77.8304C188.978 77.7984 188.833 77.7824 188.652 77.7824C188.236 77.7824 187.936 77.8872 187.751 78.0967C187.57 78.3062 187.48 78.6134 187.48 79.0182V88.031H186.223ZM194.717 79.8492V80.9145H190.307V79.8492H194.717ZM191.628 88.031V78.7199C191.628 78.2512 191.738 77.8606 191.958 77.5481C192.178 77.2356 192.464 77.0012 192.816 76.8449C193.167 76.6887 193.538 76.6106 193.929 76.6106C194.238 76.6106 194.49 76.6354 194.685 76.6851C194.881 76.7348 195.026 76.781 195.122 76.8236L194.76 77.9103C194.696 77.889 194.607 77.8623 194.494 77.8304C194.384 77.7984 194.238 77.7824 194.057 77.7824C193.641 77.7824 193.341 77.8872 193.157 78.0967C192.976 78.3062 192.885 78.6134 192.885 79.0182V88.031H191.628ZM204.256 79.8492V80.9145H200.016V79.8492H204.256ZM201.252 77.889H202.509V85.6873C202.509 86.0424 202.561 86.3087 202.663 86.4863C202.77 86.6603 202.905 86.7775 203.068 86.8378C203.235 86.8946 203.411 86.9231 203.596 86.9231C203.734 86.9231 203.848 86.9159 203.937 86.9017C204.025 86.884 204.096 86.8698 204.15 86.8591L204.405 87.9884C204.32 88.0204 204.201 88.0523 204.048 88.0843C203.896 88.1198 203.702 88.1375 203.468 88.1375C203.113 88.1375 202.765 88.0612 202.424 87.9085C202.086 87.7558 201.806 87.5232 201.582 87.2107C201.362 86.8982 201.252 86.504 201.252 86.0282V77.889ZM207.58 83.1091V88.031H206.323V77.1219H207.58V81.1276H207.687C207.878 80.705 208.166 80.3694 208.549 80.1208C208.937 79.8687 209.451 79.7427 210.094 79.7427C210.652 79.7427 211.14 79.8545 211.559 80.0782C211.978 80.2984 212.303 80.6375 212.534 81.0956C212.768 81.5502 212.885 82.129 212.885 82.8321V88.031H211.628V82.9174C211.628 82.2675 211.46 81.765 211.122 81.4099C210.788 81.0512 210.325 80.8719 209.732 80.8719C209.32 80.8719 208.951 80.9589 208.624 81.1329C208.301 81.3069 208.045 81.5608 207.857 81.8946C207.672 82.2284 207.58 82.6333 207.58 83.1091ZM217.593 88.2228C217.074 88.2228 216.604 88.1251 216.181 87.9298C215.759 87.7309 215.423 87.4451 215.175 87.0722C214.926 86.6958 214.802 86.2412 214.802 85.7086C214.802 85.2398 214.894 84.8598 215.079 84.5686C215.263 84.2739 215.51 84.0431 215.819 83.8762C216.128 83.7093 216.469 83.585 216.842 83.5033C217.218 83.4181 217.596 83.3506 217.976 83.3009C218.474 83.237 218.877 83.189 219.186 83.1571C219.498 83.1216 219.725 83.063 219.867 82.9813C220.013 82.8996 220.086 82.7576 220.086 82.5552V82.5125C220.086 81.987 219.942 81.5786 219.654 81.2874C219.37 80.9962 218.939 80.8506 218.36 80.8506C217.76 80.8506 217.289 80.982 216.948 81.2448C216.607 81.5076 216.368 81.7881 216.229 82.0864L215.036 81.6603C215.249 81.1631 215.533 80.776 215.888 80.499C216.247 80.2185 216.638 80.0232 217.06 79.9131C217.486 79.7995 217.905 79.7427 218.317 79.7427C218.58 79.7427 218.882 79.7746 219.223 79.8385C219.567 79.8989 219.899 80.025 220.219 80.2167C220.542 80.4085 220.81 80.6979 221.023 81.085C221.236 81.4721 221.343 81.9905 221.343 82.6404V88.031H220.086V86.9231H220.022C219.937 87.1006 219.795 87.2906 219.596 87.493C219.397 87.6954 219.132 87.8677 218.802 88.0097C218.472 88.1517 218.069 88.2228 217.593 88.2228ZM217.785 87.0935C218.282 87.0935 218.701 86.9958 219.042 86.8005C219.386 86.6052 219.645 86.3531 219.819 86.0441C219.997 85.7352 220.086 85.4103 220.086 85.0694V83.9188C220.033 83.9827 219.915 84.0413 219.734 84.0946C219.557 84.1443 219.351 84.1887 219.116 84.2277C218.886 84.2633 218.66 84.2952 218.44 84.3236C218.223 84.3485 218.047 84.3698 217.913 84.3875C217.586 84.4302 217.28 84.4994 216.996 84.5953C216.716 84.6876 216.489 84.8279 216.314 85.0161C216.144 85.2008 216.059 85.4529 216.059 85.7725C216.059 86.2093 216.22 86.5395 216.544 86.7633C216.87 86.9834 217.284 87.0935 217.785 87.0935ZM227.196 79.8492V80.9145H222.956V79.8492H227.196ZM224.191 77.889H225.448V85.6873C225.448 86.0424 225.5 86.3087 225.603 86.4863C225.709 86.6603 225.844 86.7775 226.008 86.8378C226.175 86.8946 226.35 86.9231 226.535 86.9231C226.674 86.9231 226.787 86.9159 226.876 86.9017C226.965 86.884 227.036 86.8698 227.089 86.8591L227.345 87.9884C227.26 88.0204 227.141 88.0523 226.988 88.0843C226.835 88.1198 226.642 88.1375 226.407 88.1375C226.052 88.1375 225.704 88.0612 225.363 87.9085C225.026 87.7558 224.745 87.5232 224.522 87.2107C224.301 86.8982 224.191 86.504 224.191 86.0282V77.889ZM233.305 88.031V79.8492H234.52V81.1276H234.626C234.797 80.6908 235.072 80.3517 235.452 80.1102C235.832 79.8652 236.288 79.7427 236.821 79.7427C237.361 79.7427 237.81 79.8652 238.169 80.1102C238.531 80.3517 238.813 80.6908 239.016 81.1276H239.101C239.31 80.705 239.625 80.3694 240.044 80.1208C240.463 79.8687 240.965 79.7427 241.551 79.7427C242.283 79.7427 242.881 79.9717 243.346 80.4298C243.811 80.8843 244.044 81.5928 244.044 82.5552V88.031H242.787V82.5552C242.787 81.9515 242.622 81.52 242.292 81.2608C241.961 81.0015 241.572 80.8719 241.125 80.8719C240.55 80.8719 240.104 81.0459 239.788 81.3939C239.472 81.7384 239.314 82.1752 239.314 82.7043V88.031H238.035V82.4273C238.035 81.9621 237.885 81.5875 237.583 81.3034C237.281 81.0157 236.892 80.8719 236.416 80.8719C236.089 80.8719 235.784 80.9589 235.5 81.1329C235.219 81.3069 234.992 81.5484 234.818 81.8574C234.648 82.1628 234.562 82.5161 234.562 82.9174V88.031H233.305ZM248.75 88.2228C248.232 88.2228 247.761 88.1251 247.339 87.9298C246.916 87.7309 246.58 87.4451 246.332 87.0722C246.083 86.6958 245.959 86.2412 245.959 85.7086C245.959 85.2398 246.051 84.8598 246.236 84.5686C246.421 84.2739 246.667 84.0431 246.976 83.8762C247.285 83.7093 247.626 83.585 247.999 83.5033C248.375 83.4181 248.754 83.3506 249.134 83.3009C249.631 83.237 250.034 83.189 250.343 83.1571C250.655 83.1216 250.883 83.063 251.025 82.9813C251.17 82.8996 251.243 82.7576 251.243 82.5552V82.5125C251.243 81.987 251.099 81.5786 250.812 81.2874C250.527 80.9962 250.096 80.8506 249.517 80.8506C248.917 80.8506 248.447 80.982 248.106 81.2448C247.765 81.5076 247.525 81.7881 247.386 82.0864L246.193 81.6603C246.406 81.1631 246.69 80.776 247.046 80.499C247.404 80.2185 247.795 80.0232 248.217 79.9131C248.644 79.7995 249.063 79.7427 249.475 79.7427C249.737 79.7427 250.039 79.7746 250.38 79.8385C250.725 79.8989 251.057 80.025 251.376 80.2167C251.699 80.4085 251.967 80.6979 252.181 81.085C252.394 81.4721 252.5 81.9905 252.5 82.6404V88.031H251.243V86.9231H251.179C251.094 87.1006 250.952 87.2906 250.753 87.493C250.554 87.6954 250.29 87.8677 249.959 88.0097C249.629 88.1517 249.226 88.2228 248.75 88.2228ZM248.942 87.0935C249.439 87.0935 249.858 86.9958 250.199 86.8005C250.543 86.6052 250.803 86.3531 250.977 86.0441C251.154 85.7352 251.243 85.4103 251.243 85.0694V83.9188C251.19 83.9827 251.073 84.0413 250.891 84.0946C250.714 84.1443 250.508 84.1887 250.274 84.2277C250.043 84.2633 249.817 84.2952 249.597 84.3236C249.38 84.3485 249.205 84.3698 249.07 84.3875C248.743 84.4302 248.438 84.4994 248.154 84.5953C247.873 84.6876 247.646 84.8279 247.472 85.0161C247.301 85.2008 247.216 85.4529 247.216 85.7725C247.216 86.2093 247.378 86.5395 247.701 86.7633C248.027 86.9834 248.441 87.0935 248.942 87.0935ZM255.966 85.0481L255.945 83.4927H256.201L259.78 79.8492H261.336L257.522 83.7057H257.415L255.966 85.0481ZM254.795 88.031V77.1219H256.052V88.031H254.795ZM259.993 88.031L256.797 83.9827L257.692 83.1091L261.591 88.031H259.993ZM266.047 88.2015C265.259 88.2015 264.579 88.0275 264.007 87.6794C263.439 87.3279 263 86.8378 262.691 86.2093C262.386 85.5772 262.233 84.8421 262.233 84.004C262.233 83.1659 262.386 82.4273 262.691 81.7881C263 81.1454 263.43 80.6446 263.981 80.286C264.534 79.9238 265.181 79.7427 265.919 79.7427C266.346 79.7427 266.766 79.8137 267.182 79.9557C267.597 80.0978 267.976 80.3286 268.316 80.6482C268.657 80.9642 268.929 81.3833 269.131 81.9053C269.334 82.4273 269.435 83.0701 269.435 83.8336V84.3662H263.128V83.2796H268.157C268.157 82.8179 268.064 82.406 267.88 82.0438C267.699 81.6816 267.439 81.3957 267.102 81.1862C266.768 80.9767 266.374 80.8719 265.919 80.8719C265.419 80.8719 264.985 80.9962 264.62 81.2448C264.258 81.4898 263.979 81.8094 263.783 82.2036C263.588 82.5978 263.49 83.0204 263.49 83.4713V84.1958C263.49 84.8137 263.597 85.3375 263.81 85.7672C264.027 86.1933 264.327 86.5182 264.71 86.7419C265.094 86.9621 265.539 87.0722 266.047 87.0722C266.378 87.0722 266.676 87.026 266.942 86.9337C267.212 86.8378 267.445 86.6958 267.64 86.5076C267.835 86.3158 267.986 86.0779 268.093 85.7938L269.307 86.1347C269.179 86.5466 268.965 86.9088 268.663 87.2213C268.361 87.5303 267.988 87.7718 267.544 87.9458C267.1 88.1162 266.601 88.2015 266.047 88.2015ZM276.376 91.0992C276.163 91.0992 275.973 91.0814 275.806 91.0459C275.639 91.014 275.523 90.982 275.46 90.95L275.779 89.8421C276.085 89.9202 276.354 89.9486 276.589 89.9273C276.823 89.906 277.031 89.8012 277.212 89.613C277.397 89.4284 277.565 89.1283 277.718 88.7128L277.952 88.0736L274.927 79.8492H276.291L278.549 86.3691H278.634L280.893 79.8492H282.256L278.783 89.2242C278.627 89.6468 278.434 89.9966 278.203 90.2735C277.972 90.5541 277.704 90.7618 277.398 90.8968C277.097 91.0317 276.756 91.0992 276.376 91.0992ZM286.947 88.2015C286.208 88.2015 285.56 88.0257 285.002 87.6741C284.448 87.3226 284.015 86.8307 283.703 86.1986C283.394 85.5665 283.239 84.8279 283.239 83.9827C283.239 83.1304 283.394 82.3865 283.703 81.7508C284.015 81.1152 284.448 80.6216 285.002 80.27C285.56 79.9184 286.208 79.7427 286.947 79.7427C287.685 79.7427 288.332 79.9184 288.886 80.27C289.443 80.6216 289.876 81.1152 290.185 81.7508C290.498 82.3865 290.654 83.1304 290.654 83.9827C290.654 84.8279 290.498 85.5665 290.185 86.1986C289.876 86.8307 289.443 87.3226 288.886 87.6741C288.332 88.0257 287.685 88.2015 286.947 88.2015ZM286.947 87.0722C287.508 87.0722 287.969 86.9284 288.332 86.6407C288.694 86.3531 288.962 85.9749 289.136 85.5061C289.31 85.0374 289.397 84.5296 289.397 83.9827C289.397 83.4358 289.31 82.9262 289.136 82.4539C288.962 81.9816 288.694 81.5999 288.332 81.3087C287.969 81.0175 287.508 80.8719 286.947 80.8719C286.386 80.8719 285.924 81.0175 285.562 81.3087C285.199 81.5999 284.931 81.9816 284.757 82.4539C284.583 82.9262 284.496 83.4358 284.496 83.9827C284.496 84.5296 284.583 85.0374 284.757 85.5061C284.931 85.9749 285.199 86.3531 285.562 86.6407C285.924 86.9284 286.386 87.0722 286.947 87.0722ZM297.729 84.6858V79.8492H298.986V88.031H297.729V86.6461H297.644C297.452 87.0615 297.154 87.4149 296.749 87.7061C296.344 87.9937 295.833 88.1375 295.215 88.1375C294.704 88.1375 294.249 88.0257 293.851 87.802C293.454 87.5747 293.141 87.2338 292.914 86.7792C292.687 86.3211 292.573 85.7441 292.573 85.0481V79.8492H293.83V84.9628C293.83 85.5594 293.997 86.0353 294.331 86.3904C294.668 86.7455 295.098 86.9231 295.62 86.9231C295.932 86.9231 296.25 86.8432 296.573 86.6833C296.9 86.5235 297.173 86.2785 297.394 85.9483C297.617 85.618 297.729 85.1972 297.729 84.6858ZM306.765 83.1091V88.031H305.508V79.8492H306.722V81.1276H306.829C307.02 80.7121 307.311 80.3783 307.702 80.1262C308.093 79.8705 308.597 79.7427 309.215 79.7427C309.769 79.7427 310.254 79.8563 310.669 80.0836C311.085 80.3073 311.408 80.6482 311.639 81.1063C311.869 81.5608 311.985 82.1361 311.985 82.8321V88.031H310.728V82.9174C310.728 82.2746 310.561 81.7739 310.227 81.4152C309.893 81.053 309.435 80.8719 308.853 80.8719C308.451 80.8719 308.093 80.9589 307.777 81.1329C307.464 81.3069 307.217 81.5608 307.036 81.8946C306.855 82.2284 306.765 82.6333 306.765 83.1091ZM317.606 88.2015C316.867 88.2015 316.219 88.0257 315.662 87.6741C315.108 87.3226 314.674 86.8307 314.362 86.1986C314.053 85.5665 313.898 84.8279 313.898 83.9827C313.898 83.1304 314.053 82.3865 314.362 81.7508C314.674 81.1152 315.108 80.6216 315.662 80.27C316.219 79.9184 316.867 79.7427 317.606 79.7427C318.344 79.7427 318.991 79.9184 319.545 80.27C320.102 80.6216 320.535 81.1152 320.844 81.7508C321.157 82.3865 321.313 83.1304 321.313 83.9827C321.313 84.8279 321.157 85.5665 320.844 86.1986C320.535 86.8307 320.102 87.3226 319.545 87.6741C318.991 88.0257 318.344 88.2015 317.606 88.2015ZM317.606 87.0722C318.167 87.0722 318.629 86.9284 318.991 86.6407C319.353 86.3531 319.621 85.9749 319.795 85.5061C319.969 85.0374 320.056 84.5296 320.056 83.9827C320.056 83.4358 319.969 82.9262 319.795 82.4539C319.621 81.9816 319.353 81.5999 318.991 81.3087C318.629 81.0175 318.167 80.8719 317.606 80.8719C317.045 80.8719 316.583 81.0175 316.221 81.3087C315.859 81.5999 315.591 81.9816 315.417 82.4539C315.242 82.9262 315.155 83.4358 315.155 83.9827C315.155 84.5296 315.242 85.0374 315.417 85.5061C315.591 85.9749 315.859 86.3531 316.221 86.6407C316.583 86.9284 317.045 87.0722 317.606 87.0722ZM326.79 79.8492V80.9145H322.55V79.8492H326.79ZM323.786 77.889H325.043V85.6873C325.043 86.0424 325.095 86.3087 325.198 86.4863C325.304 86.6603 325.439 86.7775 325.602 86.8378C325.769 86.8946 325.945 86.9231 326.13 86.9231C326.268 86.9231 326.382 86.9159 326.471 86.9017C326.56 86.884 326.631 86.8698 326.684 86.8591L326.939 87.9884C326.854 88.0204 326.735 88.0523 326.583 88.0843C326.43 88.1198 326.236 88.1375 326.002 88.1375C325.647 88.1375 325.299 88.0612 324.958 87.9085C324.621 87.7558 324.34 87.5232 324.116 87.2107C323.896 86.8982 323.786 86.504 323.786 86.0282V77.889ZM334.754 88.031L332.261 79.8492H333.582L335.35 86.1134H335.436L337.183 79.8492H338.525L340.251 86.0921H340.336L342.105 79.8492H343.426L340.933 88.031H339.697L337.907 81.7455H337.779L335.99 88.031H334.754ZM347.495 88.2228C346.977 88.2228 346.506 88.1251 346.084 87.9298C345.661 87.7309 345.326 87.4451 345.077 87.0722C344.828 86.6958 344.704 86.2412 344.704 85.7086C344.704 85.2398 344.796 84.8598 344.981 84.5686C345.166 84.2739 345.413 84.0431 345.721 83.8762C346.03 83.7093 346.371 83.585 346.744 83.5033C347.121 83.4181 347.499 83.3506 347.879 83.3009C348.376 83.237 348.779 83.189 349.088 83.1571C349.4 83.1216 349.628 83.063 349.77 82.9813C349.915 82.8996 349.988 82.7576 349.988 82.5552V82.5125C349.988 81.987 349.844 81.5786 349.557 81.2874C349.273 80.9962 348.841 80.8506 348.262 80.8506C347.662 80.8506 347.192 80.982 346.851 81.2448C346.51 81.5076 346.27 81.7881 346.132 82.0864L344.938 81.6603C345.152 81.1631 345.436 80.776 345.791 80.499C346.149 80.2185 346.54 80.0232 346.963 79.9131C347.389 79.7995 347.808 79.7427 348.22 79.7427C348.482 79.7427 348.784 79.7746 349.125 79.8385C349.47 79.8989 349.802 80.025 350.121 80.2167C350.444 80.4085 350.713 80.6979 350.926 81.085C351.139 81.4721 351.245 81.9905 351.245 82.6404V88.031H349.988V86.9231H349.924C349.839 87.1006 349.697 87.2906 349.498 87.493C349.299 87.6954 349.035 87.8677 348.704 88.0097C348.374 88.1517 347.971 88.2228 347.495 88.2228ZM347.687 87.0935C348.184 87.0935 348.603 86.9958 348.944 86.8005C349.289 86.6052 349.548 86.3531 349.722 86.0441C349.899 85.7352 349.988 85.4103 349.988 85.0694V83.9188C349.935 83.9827 349.818 84.0413 349.637 84.0946C349.459 84.1443 349.253 84.1887 349.019 84.2277C348.788 84.2633 348.562 84.2952 348.342 84.3236C348.126 84.3485 347.95 84.3698 347.815 84.3875C347.488 84.4302 347.183 84.4994 346.899 84.5953C346.618 84.6876 346.391 84.8279 346.217 85.0161C346.046 85.2008 345.961 85.4529 345.961 85.7725C345.961 86.2093 346.123 86.5395 346.446 86.7633C346.773 86.9834 347.186 87.0935 347.687 87.0935ZM354.797 83.1091V88.031H353.54V79.8492H354.754V81.1276H354.861C355.053 80.7121 355.344 80.3783 355.734 80.1262C356.125 79.8705 356.629 79.7427 357.247 79.7427C357.801 79.7427 358.286 79.8563 358.701 80.0836C359.117 80.3073 359.44 80.6482 359.671 81.1063C359.902 81.5608 360.017 82.1361 360.017 82.8321V88.031H358.76V82.9174C358.76 82.2746 358.593 81.7739 358.259 81.4152C357.925 81.053 357.467 80.8719 356.885 80.8719C356.484 80.8719 356.125 80.9589 355.809 81.1329C355.496 81.3069 355.25 81.5608 355.068 81.8946C354.887 82.2284 354.797 82.6333 354.797 83.1091ZM365.872 79.8492V80.9145H361.632V79.8492H365.872ZM362.868 77.889H364.125V85.6873C364.125 86.0424 364.177 86.3087 364.28 86.4863C364.386 86.6603 364.521 86.7775 364.685 86.8378C364.851 86.8946 365.027 86.9231 365.212 86.9231C365.35 86.9231 365.464 86.9159 365.553 86.9017C365.642 86.884 365.713 86.8698 365.766 86.8591L366.022 87.9884C365.936 88.0204 365.817 88.0523 365.665 88.0843C365.512 88.1198 365.318 88.1375 365.084 88.1375C364.729 88.1375 364.381 88.0612 364.04 87.9085C363.703 87.7558 363.422 87.5232 363.198 87.2107C362.978 86.8982 362.868 86.504 362.868 86.0282V77.889Z" fill="#010101"/>
<path d="M16.3473 106.031V97.8492H17.5618V99.1276H17.6684C17.8388 98.6908 18.114 98.3517 18.494 98.1102C18.874 97.8652 19.3303 97.7427 19.863 97.7427C20.4027 97.7427 20.852 97.8652 21.2106 98.1102C21.5728 98.3517 21.8552 98.6908 22.0576 99.1276H22.1428C22.3523 98.705 22.6666 98.3694 23.0856 98.1208C23.5047 97.8687 24.0071 97.7427 24.5931 97.7427C25.3246 97.7427 25.923 97.9717 26.3882 98.4298C26.8534 98.8843 27.086 99.5928 27.086 100.555V106.031H25.8289V100.555C25.8289 99.9515 25.6638 99.52 25.3335 99.2608C25.0032 99.0015 24.6144 98.8719 24.1669 98.8719C23.5917 98.8719 23.146 99.0459 22.8299 99.3939C22.5139 99.7384 22.3559 100.175 22.3559 100.704V106.031H21.0775V100.427C21.0775 99.9621 20.9265 99.5875 20.6247 99.3034C20.3228 99.0157 19.934 98.8719 19.4581 98.8719C19.1314 98.8719 18.826 98.9589 18.5419 99.1329C18.2614 99.3069 18.0341 99.5484 17.8601 99.8574C17.6897 100.163 17.6044 100.516 17.6044 100.917V106.031H16.3473ZM32.8149 106.201C32.0265 106.201 31.3465 106.027 30.7747 105.679C30.2065 105.328 29.768 104.838 29.459 104.209C29.1536 103.577 29.0009 102.842 29.0009 102.004C29.0009 101.166 29.1536 100.427 29.459 99.7881C29.768 99.1454 30.1977 98.6446 30.7481 98.286C31.3021 97.9238 31.9484 97.7427 32.687 97.7427C33.1131 97.7427 33.534 97.8137 33.9494 97.9557C34.3649 98.0978 34.7431 98.3286 35.084 98.6482C35.4249 98.9642 35.6966 99.3833 35.899 99.9053C36.1014 100.427 36.2026 101.07 36.2026 101.834V102.366H29.8958V101.28H34.9242C34.9242 100.818 34.8319 100.406 34.6472 100.044C34.4661 99.6816 34.2069 99.3957 33.8695 99.1862C33.5357 98.9767 33.1416 98.8719 32.687 98.8719C32.1863 98.8719 31.7531 98.9962 31.3873 99.2448C31.0251 99.4898 30.7463 99.8094 30.551 100.204C30.3557 100.598 30.258 101.02 30.258 101.471V102.196C30.258 102.814 30.3646 103.337 30.5776 103.767C30.7943 104.193 31.0943 104.518 31.4778 104.742C31.8614 104.962 32.307 105.072 32.8149 105.072C33.1451 105.072 33.4434 105.026 33.7097 104.934C33.9796 104.838 34.2122 104.696 34.4075 104.508C34.6028 104.316 34.7538 104.078 34.8603 103.794L36.0748 104.135C35.947 104.547 35.7321 104.909 35.4303 105.221C35.1284 105.53 34.7555 105.772 34.3117 105.946C33.8678 106.116 33.3688 106.201 32.8149 106.201ZM42.3337 106.031V97.8492H43.5908V106.031H42.3337ZM42.9729 96.4856C42.7278 96.4856 42.5166 96.4021 42.339 96.2352C42.165 96.0683 42.078 95.8677 42.078 95.6333C42.078 95.3989 42.165 95.1983 42.339 95.0314C42.5166 94.8645 42.7278 94.781 42.9729 94.781C43.2179 94.781 43.4274 94.8645 43.6014 95.0314C43.779 95.1983 43.8678 95.3989 43.8678 95.6333C43.8678 95.8677 43.779 96.0683 43.6014 96.2352C43.4274 96.4021 43.2179 96.4856 42.9729 96.4856ZM47.1503 101.109V106.031H45.8932V97.8492H47.1077V99.1276H47.2143C47.406 98.7121 47.6972 98.3783 48.0878 98.1262C48.4785 97.8705 48.9827 97.7427 49.6006 97.7427C50.1546 97.7427 50.6393 97.8563 51.0548 98.0836C51.4703 98.3073 51.7935 98.6482 52.0243 99.1063C52.2551 99.5608 52.3705 100.136 52.3705 100.832V106.031H51.1134V100.917C51.1134 100.275 50.9465 99.7739 50.6127 99.4152C50.2789 99.053 49.8208 98.8719 49.2384 98.8719C48.8371 98.8719 48.4785 98.9589 48.1624 99.1329C47.8499 99.3069 47.6031 99.5608 47.422 99.8946C47.2409 100.228 47.1503 100.633 47.1503 101.109ZM59.6961 109.099C59.483 109.099 59.293 109.081 59.1261 109.046C58.9592 109.014 58.8438 108.982 58.7799 108.95L59.0995 107.842C59.4049 107.92 59.6748 107.949 59.9091 107.927C60.1435 107.906 60.3513 107.801 60.5324 107.613C60.717 107.428 60.8857 107.128 61.0384 106.713L61.2728 106.074L58.2472 97.8492H59.6108L61.8694 104.369H61.9546L64.2131 97.8492H65.5767L62.1037 107.224C61.9475 107.647 61.754 107.997 61.5231 108.274C61.2923 108.554 61.0242 108.762 60.7188 108.897C60.4169 109.032 60.076 109.099 59.6961 109.099ZM70.2669 106.201C69.5283 106.201 68.8802 106.026 68.3227 105.674C67.7687 105.323 67.3354 104.831 67.0229 104.199C66.714 103.567 66.5595 102.828 66.5595 101.983C66.5595 101.13 66.714 100.386 67.0229 99.7508C67.3354 99.1152 67.7687 98.6216 68.3227 98.27C68.8802 97.9184 69.5283 97.7427 70.2669 97.7427C71.0055 97.7427 71.6519 97.9184 72.2058 98.27C72.7634 98.6216 73.1966 99.1152 73.5055 99.7508C73.818 100.386 73.9743 101.13 73.9743 101.983C73.9743 102.828 73.818 103.567 73.5055 104.199C73.1966 104.831 72.7634 105.323 72.2058 105.674C71.6519 106.026 71.0055 106.201 70.2669 106.201ZM70.2669 105.072C70.828 105.072 71.2896 104.928 71.6519 104.641C72.0141 104.353 72.2822 103.975 72.4562 103.506C72.6302 103.037 72.7172 102.53 72.7172 101.983C72.7172 101.436 72.6302 100.926 72.4562 100.454C72.2822 99.9816 72.0141 99.5999 71.6519 99.3087C71.2896 99.0175 70.828 98.8719 70.2669 98.8719C69.7058 98.8719 69.2442 99.0175 68.882 99.3087C68.5198 99.5999 68.2516 99.9816 68.0776 100.454C67.9036 100.926 67.8166 101.436 67.8166 101.983C67.8166 102.53 67.9036 103.037 68.0776 103.506C68.2516 103.975 68.5198 104.353 68.882 104.641C69.2442 104.928 69.7058 105.072 70.2669 105.072ZM81.0495 102.686V97.8492H82.3066V106.031H81.0495V104.646H80.9643C80.7725 105.062 80.4742 105.415 80.0694 105.706C79.6646 105.994 79.1532 106.138 78.5353 106.138C78.0239 106.138 77.5694 106.026 77.1717 105.802C76.7739 105.575 76.4614 105.234 76.2342 104.779C76.0069 104.321 75.8932 103.744 75.8932 103.048V97.8492H77.1503V102.963C77.1503 103.559 77.3172 104.035 77.6511 104.39C77.9884 104.745 78.4181 104.923 78.9401 104.923C79.2526 104.923 79.5704 104.843 79.8936 104.683C80.2203 104.524 80.4937 104.279 80.7139 103.948C80.9376 103.618 81.0495 103.197 81.0495 102.686ZM84.6091 106.031V97.8492H85.8236V99.085H85.9088C86.0579 98.6802 86.3278 98.3517 86.7184 98.0995C87.1091 97.8474 87.5494 97.7213 88.0395 97.7213C88.1318 97.7213 88.2472 97.7231 88.3857 97.7267C88.5242 97.7302 88.629 97.7356 88.7 97.7427V99.0211C88.6574 99.0104 88.5597 98.9944 88.407 98.9731C88.2579 98.9483 88.0998 98.9358 87.9329 98.9358C87.5352 98.9358 87.1801 99.0193 86.8676 99.1862C86.5586 99.3495 86.3136 99.5768 86.1325 99.868C85.9549 100.156 85.8662 100.484 85.8662 100.853V106.031H84.6091ZM100.545 97.8492C100.481 97.3094 100.222 96.8904 99.7675 96.5921C99.313 96.2938 98.7555 96.1446 98.0949 96.1446C97.612 96.1446 97.1894 96.2228 96.8272 96.379C96.4685 96.5353 96.188 96.7501 95.9856 97.0235C95.7867 97.297 95.6873 97.6077 95.6873 97.9557C95.6873 98.2469 95.7565 98.4973 95.895 98.7068C96.0371 98.9128 96.2182 99.085 96.4383 99.2235C96.6585 99.3584 96.8893 99.4703 97.1308 99.5591C97.3723 99.6443 97.5942 99.7135 97.7967 99.7668L98.9046 100.065C99.1887 100.14 99.5047 100.243 99.8528 100.374C100.204 100.505 100.54 100.685 100.86 100.912C101.183 101.136 101.449 101.423 101.659 101.775C101.868 102.127 101.973 102.558 101.973 103.069C101.973 103.659 101.818 104.192 101.509 104.667C101.204 105.143 100.757 105.521 100.167 105.802C99.5811 106.082 98.8691 106.223 98.031 106.223C97.2498 106.223 96.5733 106.097 96.0016 105.845C95.4334 105.592 94.9859 105.241 94.6592 104.79C94.3361 104.339 94.1532 103.815 94.1106 103.219H95.4742C95.5097 103.63 95.6482 103.971 95.8897 104.241C96.1347 104.508 96.4437 104.706 96.8165 104.838C97.193 104.966 97.5978 105.03 98.031 105.03C98.5353 105.03 98.9881 104.948 99.3893 104.785C99.7906 104.618 100.108 104.387 100.343 104.092C100.577 103.794 100.694 103.446 100.694 103.048C100.694 102.686 100.593 102.391 100.391 102.164C100.188 101.937 99.922 101.752 99.5918 101.61C99.2615 101.468 98.9046 101.344 98.5211 101.237L97.1788 100.853C96.3265 100.608 95.6518 100.259 95.1546 99.8041C94.6574 99.3495 94.4089 98.7547 94.4089 98.0196C94.4089 97.4088 94.574 96.8762 94.9043 96.4216C95.2381 95.9635 95.6855 95.6084 96.2466 95.3563C96.8112 95.1006 97.4415 94.9728 98.1376 94.9728C98.8407 94.9728 99.4657 95.0988 100.013 95.351C100.559 95.5995 100.993 95.9405 101.312 96.3737C101.635 96.8069 101.806 97.2988 101.824 97.8492H100.545ZM107.298 106.201C106.56 106.201 105.911 106.026 105.354 105.674C104.8 105.323 104.367 104.831 104.054 104.199C103.745 103.567 103.591 102.828 103.591 101.983C103.591 101.13 103.745 100.386 104.054 99.7508C104.367 99.1152 104.8 98.6216 105.354 98.27C105.911 97.9184 106.56 97.7427 107.298 97.7427C108.037 97.7427 108.683 97.9184 109.237 98.27C109.795 98.6216 110.228 99.1152 110.537 99.7508C110.849 100.386 111.006 101.13 111.006 101.983C111.006 102.828 110.849 103.567 110.537 104.199C110.228 104.831 109.795 105.323 109.237 105.674C108.683 106.026 108.037 106.201 107.298 106.201ZM107.298 105.072C107.859 105.072 108.321 104.928 108.683 104.641C109.045 104.353 109.313 103.975 109.487 103.506C109.661 103.037 109.748 102.53 109.748 101.983C109.748 101.436 109.661 100.926 109.487 100.454C109.313 99.9816 109.045 99.5999 108.683 99.3087C108.321 99.0175 107.859 98.8719 107.298 98.8719C106.737 98.8719 106.275 99.0175 105.913 99.3087C105.551 99.5999 105.283 99.9816 105.109 100.454C104.935 100.926 104.848 101.436 104.848 101.983C104.848 102.53 104.935 103.037 105.109 103.506C105.283 103.975 105.551 104.353 105.913 104.641C106.275 104.928 106.737 105.072 107.298 105.072ZM116.248 106.201C115.481 106.201 114.821 106.02 114.267 105.658C113.713 105.296 113.287 104.797 112.988 104.161C112.69 103.526 112.541 102.799 112.541 101.983C112.541 101.152 112.694 100.418 112.999 99.7828C113.308 99.1436 113.738 98.6446 114.288 98.286C114.842 97.9238 115.488 97.7427 116.227 97.7427C116.802 97.7427 117.321 97.8492 117.782 98.0623C118.244 98.2753 118.622 98.5736 118.917 98.9571C119.212 99.3407 119.395 99.7881 119.466 100.299H118.209C118.113 99.9266 117.9 99.5963 117.569 99.3087C117.243 99.0175 116.802 98.8719 116.248 98.8719C115.758 98.8719 115.329 98.9998 114.959 99.2554C114.594 99.5076 114.308 99.8645 114.102 100.326C113.899 100.784 113.798 101.322 113.798 101.94C113.798 102.572 113.898 103.123 114.096 103.591C114.299 104.06 114.583 104.424 114.949 104.683C115.318 104.943 115.751 105.072 116.248 105.072C116.575 105.072 116.872 105.015 117.138 104.902C117.404 104.788 117.63 104.625 117.814 104.412C117.999 104.199 118.13 103.943 118.209 103.645H119.466C119.395 104.128 119.219 104.563 118.938 104.95C118.661 105.333 118.294 105.639 117.836 105.866C117.381 106.09 116.852 106.201 116.248 106.201ZM121.303 106.031V97.8492H122.561V106.031H121.303ZM121.943 96.4856C121.698 96.4856 121.486 96.4021 121.309 96.2352C121.135 96.0683 121.048 95.8677 121.048 95.6333C121.048 95.3989 121.135 95.1983 121.309 95.0314C121.486 94.8645 121.698 94.781 121.943 94.781C122.188 94.781 122.397 94.8645 122.571 95.0314C122.749 95.1983 122.837 95.3989 122.837 95.6333C122.837 95.8677 122.749 96.0683 122.571 96.2352C122.397 96.4021 122.188 96.4856 121.943 96.4856ZM127.271 106.223C126.752 106.223 126.282 106.125 125.859 105.93C125.436 105.731 125.101 105.445 124.852 105.072C124.604 104.696 124.479 104.241 124.479 103.709C124.479 103.24 124.572 102.86 124.756 102.569C124.941 102.274 125.188 102.043 125.497 101.876C125.806 101.709 126.147 101.585 126.52 101.503C126.896 101.418 127.274 101.351 127.654 101.301C128.151 101.237 128.554 101.189 128.863 101.157C129.176 101.122 129.403 101.063 129.545 100.981C129.691 100.9 129.764 100.758 129.764 100.555V100.513C129.764 99.987 129.62 99.5786 129.332 99.2874C129.048 98.9962 128.617 98.8506 128.038 98.8506C127.438 98.8506 126.967 98.982 126.626 99.2448C126.285 99.5076 126.045 99.7881 125.907 100.086L124.714 99.6603C124.927 99.1631 125.211 98.776 125.566 98.499C125.925 98.2185 126.315 98.0232 126.738 97.9131C127.164 97.7995 127.583 97.7427 127.995 97.7427C128.258 97.7427 128.56 97.7746 128.901 97.8385C129.245 97.8989 129.577 98.025 129.897 98.2167C130.22 98.4085 130.488 98.6979 130.701 99.085C130.914 99.4721 131.021 99.9905 131.021 100.64V106.031H129.764V104.923H129.7C129.614 105.101 129.472 105.291 129.273 105.493C129.075 105.695 128.81 105.868 128.48 106.01C128.15 106.152 127.746 106.223 127.271 106.223ZM127.462 105.094C127.96 105.094 128.379 104.996 128.72 104.801C129.064 104.605 129.323 104.353 129.497 104.044C129.675 103.735 129.764 103.41 129.764 103.069V101.919C129.71 101.983 129.593 102.041 129.412 102.095C129.234 102.144 129.028 102.189 128.794 102.228C128.563 102.263 128.338 102.295 128.118 102.324C127.901 102.348 127.725 102.37 127.59 102.388C127.264 102.43 126.958 102.499 126.674 102.595C126.394 102.688 126.166 102.828 125.992 103.016C125.822 103.201 125.737 103.453 125.737 103.772C125.737 104.209 125.898 104.54 126.221 104.763C126.548 104.983 126.962 105.094 127.462 105.094ZM134.572 95.1219V106.031H133.315V95.1219H134.572ZM148.721 98.531C148.604 98.1723 148.45 97.851 148.258 97.5669C148.07 97.2792 147.844 97.0342 147.581 96.8318C147.322 96.6294 147.027 96.4749 146.697 96.3684C146.367 96.2618 146.005 96.2086 145.61 96.2086C144.964 96.2086 144.376 96.3755 143.847 96.7093C143.318 97.0431 142.897 97.5349 142.585 98.1848C142.272 98.8346 142.116 99.6319 142.116 100.576C142.116 101.521 142.274 102.318 142.59 102.968C142.906 103.618 143.334 104.11 143.874 104.444C144.414 104.777 145.021 104.944 145.696 104.944C146.321 104.944 146.871 104.811 147.347 104.545C147.826 104.275 148.199 103.895 148.466 103.405C148.735 102.911 148.87 102.331 148.87 101.663L149.275 101.748H145.994V100.576H150.149V101.748C150.149 102.647 149.957 103.428 149.574 104.092C149.194 104.756 148.668 105.271 147.997 105.637C147.329 105.999 146.562 106.18 145.696 106.18C144.73 106.18 143.881 105.953 143.15 105.498C142.422 105.044 141.853 104.397 141.445 103.559C141.04 102.721 140.838 101.727 140.838 100.576C140.838 99.7135 140.953 98.9376 141.184 98.2487C141.418 97.5562 141.749 96.9667 142.175 96.4802C142.601 95.9937 143.105 95.6208 143.688 95.3616C144.27 95.1024 144.911 94.9728 145.61 94.9728C146.186 94.9728 146.722 95.0598 147.219 95.2338C147.72 95.4042 148.166 95.6475 148.556 95.9635C148.95 96.276 149.279 96.6507 149.542 97.0875C149.804 97.5207 149.985 98.0019 150.085 98.531H148.721ZM155.671 106.201C154.883 106.201 154.203 106.027 153.631 105.679C153.063 105.328 152.624 104.838 152.315 104.209C152.01 103.577 151.857 102.842 151.857 102.004C151.857 101.166 152.01 100.427 152.315 99.7881C152.624 99.1454 153.054 98.6446 153.605 98.286C154.159 97.9238 154.805 97.7427 155.543 97.7427C155.97 97.7427 156.39 97.8137 156.806 97.9557C157.221 98.0978 157.6 98.3286 157.94 98.6482C158.281 98.9642 158.553 99.3833 158.755 99.9053C158.958 100.427 159.059 101.07 159.059 101.834V102.366H152.752V101.28H157.781C157.781 100.818 157.688 100.406 157.504 100.044C157.323 99.6816 157.063 99.3957 156.726 99.1862C156.392 98.9767 155.998 98.8719 155.543 98.8719C155.043 98.8719 154.61 98.9962 154.244 99.2448C153.882 99.4898 153.603 99.8094 153.407 100.204C153.212 100.598 153.114 101.02 153.114 101.471V102.196C153.114 102.814 153.221 103.337 153.434 103.767C153.651 104.193 153.951 104.518 154.334 104.742C154.718 104.962 155.163 105.072 155.671 105.072C156.002 105.072 156.3 105.026 156.566 104.934C156.836 104.838 157.069 104.696 157.264 104.508C157.459 104.316 157.61 104.078 157.717 103.794L158.931 104.135C158.803 104.547 158.589 104.909 158.287 105.221C157.985 105.53 157.612 105.772 157.168 105.946C156.724 106.116 156.225 106.201 155.671 106.201ZM164.295 106.201C163.557 106.201 162.909 106.026 162.351 105.674C161.797 105.323 161.364 104.831 161.051 104.199C160.742 103.567 160.588 102.828 160.588 101.983C160.588 101.13 160.742 100.386 161.051 99.7508C161.364 99.1152 161.797 98.6216 162.351 98.27C162.909 97.9184 163.557 97.7427 164.295 97.7427C165.034 97.7427 165.68 97.9184 166.234 98.27C166.792 98.6216 167.225 99.1152 167.534 99.7508C167.846 100.386 168.003 101.13 168.003 101.983C168.003 102.828 167.846 103.567 167.534 104.199C167.225 104.831 166.792 105.323 166.234 105.674C165.68 106.026 165.034 106.201 164.295 106.201ZM164.295 105.072C164.856 105.072 165.318 104.928 165.68 104.641C166.042 104.353 166.311 103.975 166.485 103.506C166.659 103.037 166.746 102.53 166.746 101.983C166.746 101.436 166.659 100.926 166.485 100.454C166.311 99.9816 166.042 99.5999 165.68 99.3087C165.318 99.0175 164.856 98.8719 164.295 98.8719C163.734 98.8719 163.273 99.0175 162.91 99.3087C162.548 99.5999 162.28 99.9816 162.106 100.454C161.932 100.926 161.845 101.436 161.845 101.983C161.845 102.53 161.932 103.037 162.106 103.506C162.28 103.975 162.548 104.353 162.91 104.641C163.273 104.928 163.734 105.072 164.295 105.072ZM176.058 97.8492C175.994 97.3094 175.735 96.8904 175.28 96.5921C174.826 96.2938 174.268 96.1446 173.608 96.1446C173.125 96.1446 172.702 96.2228 172.34 96.379C171.981 96.5353 171.701 96.7501 171.498 97.0235C171.299 97.297 171.2 97.6077 171.2 97.9557C171.2 98.2469 171.269 98.4973 171.408 98.7068C171.55 98.9128 171.731 99.085 171.951 99.2235C172.171 99.3584 172.402 99.4703 172.644 99.5591C172.885 99.6443 173.107 99.7135 173.309 99.7668L174.417 100.065C174.701 100.14 175.017 100.243 175.365 100.374C175.717 100.505 176.053 100.685 176.372 100.912C176.695 101.136 176.962 101.423 177.171 101.775C177.381 102.127 177.485 102.558 177.485 103.069C177.485 103.659 177.331 104.192 177.022 104.667C176.717 105.143 176.269 105.521 175.68 105.802C175.094 106.082 174.382 106.223 173.544 106.223C172.762 106.223 172.086 106.097 171.514 105.845C170.946 105.592 170.499 105.241 170.172 104.79C169.849 104.339 169.666 103.815 169.623 103.219H170.987C171.022 103.63 171.161 103.971 171.402 104.241C171.647 104.508 171.956 104.706 172.329 104.838C172.706 104.966 173.11 105.03 173.544 105.03C174.048 105.03 174.501 104.948 174.902 104.785C175.303 104.618 175.621 104.387 175.856 104.092C176.09 103.794 176.207 103.446 176.207 103.048C176.207 102.686 176.106 102.391 175.903 102.164C175.701 101.937 175.435 101.752 175.104 101.61C174.774 101.468 174.417 101.344 174.034 101.237L172.691 100.853C171.839 100.608 171.164 100.259 170.667 99.8041C170.17 99.3495 169.922 98.7547 169.922 98.0196C169.922 97.4088 170.087 96.8762 170.417 96.4216C170.751 95.9635 171.198 95.6084 171.759 95.3563C172.324 95.1006 172.954 94.9728 173.65 94.9728C174.353 94.9728 174.978 95.0988 175.525 95.351C176.072 95.5995 176.505 95.9405 176.825 96.3737C177.148 96.8069 177.319 97.2988 177.336 97.8492H176.058ZM179.487 109.099V97.8492H180.701V99.1489H180.851C180.943 99.0069 181.071 98.8257 181.234 98.6056C181.401 98.3819 181.639 98.183 181.948 98.009C182.26 97.8314 182.683 97.7427 183.216 97.7427C183.905 97.7427 184.512 97.9149 185.037 98.2593C185.563 98.6038 185.973 99.0921 186.268 99.7242C186.563 100.356 186.71 101.102 186.71 101.961C186.71 102.828 186.563 103.579 186.268 104.215C185.973 104.847 185.565 105.337 185.043 105.685C184.521 106.029 183.919 106.201 183.237 106.201C182.711 106.201 182.291 106.114 181.975 105.94C181.659 105.763 181.415 105.562 181.245 105.339C181.074 105.111 180.943 104.923 180.851 104.774H180.744V109.099H179.487ZM180.723 101.94C180.723 102.558 180.813 103.103 180.994 103.575C181.176 104.044 181.44 104.412 181.788 104.678C182.136 104.941 182.562 105.072 183.067 105.072C183.592 105.072 184.031 104.934 184.382 104.657C184.737 104.376 185.004 104 185.181 103.527C185.362 103.052 185.453 102.522 185.453 101.94C185.453 101.365 185.364 100.846 185.187 100.385C185.013 99.9195 184.748 99.552 184.393 99.2821C184.041 99.0086 183.599 98.8719 183.067 98.8719C182.555 98.8719 182.125 99.0015 181.777 99.2608C181.429 99.5164 181.167 99.8751 180.989 100.337C180.812 100.795 180.723 101.329 180.723 101.94ZM189.885 101.109V106.031H188.628V95.1219H189.885V99.1276H189.991C190.183 98.705 190.471 98.3694 190.854 98.1208C191.241 97.8687 191.756 97.7427 192.399 97.7427C192.956 97.7427 193.445 97.8545 193.864 98.0782C194.283 98.2984 194.608 98.6375 194.839 99.0956C195.073 99.5502 195.19 100.129 195.19 100.832V106.031H193.933V100.917C193.933 100.268 193.764 99.765 193.427 99.4099C193.093 99.0512 192.63 98.8719 192.037 98.8719C191.625 98.8719 191.255 98.9589 190.929 99.1329C190.606 99.3069 190.35 99.5608 190.162 99.8946C189.977 100.228 189.885 100.633 189.885 101.109ZM200.92 106.201C200.132 106.201 199.452 106.027 198.88 105.679C198.312 105.328 197.873 104.838 197.564 104.209C197.259 103.577 197.106 102.842 197.106 102.004C197.106 101.166 197.259 100.427 197.564 99.7881C197.873 99.1454 198.303 98.6446 198.854 98.286C199.408 97.9238 200.054 97.7427 200.792 97.7427C201.219 97.7427 201.639 97.8137 202.055 97.9557C202.47 98.0978 202.849 98.3286 203.189 98.6482C203.53 98.9642 203.802 99.3833 204.004 99.9053C204.207 100.427 204.308 101.07 204.308 101.834V102.366H198.001V101.28H203.03C203.03 100.818 202.937 100.406 202.753 100.044C202.572 99.6816 202.312 99.3957 201.975 99.1862C201.641 98.9767 201.247 98.8719 200.792 98.8719C200.292 98.8719 199.859 98.9962 199.493 99.2448C199.131 99.4898 198.852 99.8094 198.656 100.204C198.461 100.598 198.364 101.02 198.364 101.471V102.196C198.364 102.814 198.47 103.337 198.683 103.767C198.9 104.193 199.2 104.518 199.583 104.742C199.967 104.962 200.413 105.072 200.92 105.072C201.251 105.072 201.549 105.026 201.815 104.934C202.085 104.838 202.318 104.696 202.513 104.508C202.708 104.316 202.859 104.078 202.966 103.794L204.18 104.135C204.052 104.547 203.838 104.909 203.536 105.221C203.234 105.53 202.861 105.772 202.417 105.946C201.973 106.116 201.474 106.201 200.92 106.201ZM206.22 106.031V97.8492H207.435V99.085H207.52C207.669 98.6802 207.939 98.3517 208.33 98.0995C208.72 97.8474 209.161 97.7213 209.651 97.7213C209.743 97.7213 209.859 97.7231 209.997 97.7267C210.136 97.7302 210.24 97.7356 210.311 97.7427V99.0211C210.269 99.0104 210.171 98.9944 210.018 98.9731C209.869 98.9483 209.711 98.9358 209.544 98.9358C209.147 98.9358 208.791 99.0193 208.479 99.1862C208.17 99.3495 207.925 99.5768 207.744 99.868C207.566 100.156 207.477 100.484 207.477 100.853V106.031H206.22ZM214.983 106.201C214.194 106.201 213.514 106.027 212.943 105.679C212.375 105.328 211.936 104.838 211.627 104.209C211.322 103.577 211.169 102.842 211.169 102.004C211.169 101.166 211.322 100.427 211.627 99.7881C211.936 99.1454 212.366 98.6446 212.916 98.286C213.47 97.9238 214.116 97.7427 214.855 97.7427C215.281 97.7427 215.702 97.8137 216.117 97.9557C216.533 98.0978 216.911 98.3286 217.252 98.6482C217.593 98.9642 217.865 99.3833 218.067 99.9053C218.269 100.427 218.371 101.07 218.371 101.834V102.366H212.064V101.28H217.092C217.092 100.818 217 100.406 216.815 100.044C216.634 99.6816 216.375 99.3957 216.038 99.1862C215.704 98.9767 215.31 98.8719 214.855 98.8719C214.354 98.8719 213.921 98.9962 213.555 99.2448C213.193 99.4898 212.914 99.8094 212.719 100.204C212.524 100.598 212.426 101.02 212.426 101.471V102.196C212.426 102.814 212.533 103.337 212.746 103.767C212.962 104.193 213.262 104.518 213.646 104.742C214.029 104.962 214.475 105.072 214.983 105.072C215.313 105.072 215.611 105.026 215.878 104.934C216.148 104.838 216.38 104.696 216.576 104.508C216.771 104.316 216.922 104.078 217.028 103.794L218.243 104.135C218.115 104.547 217.9 104.909 217.598 105.221C217.296 105.53 216.924 105.772 216.48 105.946C216.036 106.116 215.537 106.201 214.983 106.201ZM230.574 106.031L228.081 97.8492H229.402L231.171 104.113H231.256L233.003 97.8492H234.345L236.071 104.092H236.156L237.925 97.8492H239.246L236.753 106.031H235.517L233.727 99.7455H233.6L231.81 106.031H230.574ZM242.165 101.109V106.031H240.908V95.1219H242.165V99.1276H242.272C242.463 98.705 242.751 98.3694 243.134 98.1208C243.522 97.8687 244.036 97.7427 244.679 97.7427C245.237 97.7427 245.725 97.8545 246.144 98.0782C246.563 98.2984 246.888 98.6375 247.119 99.0956C247.353 99.5502 247.47 100.129 247.47 100.832V106.031H246.213V100.917C246.213 100.268 246.045 99.765 245.707 99.4099C245.373 99.0512 244.91 98.8719 244.317 98.8719C243.905 98.8719 243.536 98.9589 243.209 99.1329C242.886 99.3069 242.63 99.5608 242.442 99.8946C242.257 100.228 242.165 100.633 242.165 101.109ZM252.178 106.223C251.659 106.223 251.189 106.125 250.766 105.93C250.344 105.731 250.008 105.445 249.76 105.072C249.511 104.696 249.387 104.241 249.387 103.709C249.387 103.24 249.479 102.86 249.664 102.569C249.848 102.274 250.095 102.043 250.404 101.876C250.713 101.709 251.054 101.585 251.427 101.503C251.803 101.418 252.181 101.351 252.561 101.301C253.059 101.237 253.462 101.189 253.771 101.157C254.083 101.122 254.31 101.063 254.452 100.981C254.598 100.9 254.671 100.758 254.671 100.555V100.513C254.671 99.987 254.527 99.5786 254.239 99.2874C253.955 98.9962 253.524 98.8506 252.945 98.8506C252.345 98.8506 251.874 98.982 251.533 99.2448C251.192 99.5076 250.953 99.7881 250.814 100.086L249.621 99.6603C249.834 99.1631 250.118 98.776 250.473 98.499C250.832 98.2185 251.223 98.0232 251.645 97.9131C252.071 97.7995 252.49 97.7427 252.902 97.7427C253.165 97.7427 253.467 97.7746 253.808 97.8385C254.152 97.8989 254.484 98.025 254.804 98.2167C255.127 98.4085 255.395 98.6979 255.608 99.085C255.821 99.4721 255.928 99.9905 255.928 100.64V106.031H254.671V104.923H254.607C254.522 105.101 254.38 105.291 254.181 105.493C253.982 105.695 253.717 105.868 253.387 106.01C253.057 106.152 252.654 106.223 252.178 106.223ZM252.37 105.094C252.867 105.094 253.286 104.996 253.627 104.801C253.971 104.605 254.23 104.353 254.404 104.044C254.582 103.735 254.671 103.41 254.671 103.069V101.919C254.617 101.983 254.5 102.041 254.319 102.095C254.142 102.144 253.936 102.189 253.701 102.228C253.47 102.263 253.245 102.295 253.025 102.324C252.808 102.348 252.632 102.37 252.497 102.388C252.171 102.43 251.865 102.499 251.581 102.595C251.301 102.688 251.073 102.828 250.899 103.016C250.729 103.201 250.644 103.453 250.644 103.772C250.644 104.209 250.805 104.54 251.129 104.763C251.455 104.983 251.869 105.094 252.37 105.094ZM261.781 97.8492V98.9145H257.541V97.8492H261.781ZM258.776 95.889H260.033V103.687C260.033 104.042 260.085 104.309 260.188 104.486C260.294 104.66 260.429 104.777 260.593 104.838C260.76 104.895 260.935 104.923 261.12 104.923C261.259 104.923 261.372 104.916 261.461 104.902C261.55 104.884 261.621 104.87 261.674 104.859L261.93 105.988C261.845 106.02 261.726 106.052 261.573 106.084C261.42 106.12 261.227 106.138 260.992 106.138C260.637 106.138 260.289 106.061 259.948 105.908C259.611 105.756 259.33 105.523 259.107 105.211C258.886 104.898 258.776 104.504 258.776 104.028V95.889ZM269.147 101.109V106.031H267.89V97.8492H269.105V99.1276H269.211C269.403 98.7121 269.694 98.3783 270.085 98.1262C270.476 97.8705 270.98 97.7427 271.598 97.7427C272.152 97.7427 272.636 97.8563 273.052 98.0836C273.467 98.3073 273.791 98.6482 274.021 99.1063C274.252 99.5608 274.368 100.136 274.368 100.832V106.031H273.11V100.917C273.11 100.275 272.944 99.7739 272.61 99.4152C272.276 99.053 271.818 98.8719 271.235 98.8719C270.834 98.8719 270.476 98.9589 270.159 99.1329C269.847 99.3069 269.6 99.5608 269.419 99.8946C269.238 100.228 269.147 100.633 269.147 101.109ZM279.989 106.201C279.25 106.201 278.602 106.026 278.044 105.674C277.49 105.323 277.057 104.831 276.745 104.199C276.436 103.567 276.281 102.828 276.281 101.983C276.281 101.13 276.436 100.386 276.745 99.7508C277.057 99.1152 277.49 98.6216 278.044 98.27C278.602 97.9184 279.25 97.7427 279.989 97.7427C280.727 97.7427 281.374 97.9184 281.928 98.27C282.485 98.6216 282.918 99.1152 283.227 99.7508C283.54 100.386 283.696 101.13 283.696 101.983C283.696 102.828 283.54 103.567 283.227 104.199C282.918 104.831 282.485 105.323 281.928 105.674C281.374 106.026 280.727 106.201 279.989 106.201ZM279.989 105.072C280.55 105.072 281.011 104.928 281.374 104.641C281.736 104.353 282.004 103.975 282.178 103.506C282.352 103.037 282.439 102.53 282.439 101.983C282.439 101.436 282.352 100.926 282.178 100.454C282.004 99.9816 281.736 99.5999 281.374 99.3087C281.011 99.0175 280.55 98.8719 279.989 98.8719C279.428 98.8719 278.966 99.0175 278.604 99.3087C278.241 99.5999 277.973 99.9816 277.799 100.454C277.625 100.926 277.538 101.436 277.538 101.983C277.538 102.53 277.625 103.037 277.799 103.506C277.973 103.975 278.241 104.353 278.604 104.641C278.966 104.928 279.428 105.072 279.989 105.072ZM287.19 106.031L284.697 97.8492H286.018L287.787 104.113H287.872L289.619 97.8492H290.962L292.687 104.092H292.773L294.541 97.8492H295.862L293.369 106.031H292.133L290.344 99.7455H290.216L288.426 106.031H287.19ZM299.165 102.963V102.899C299.172 102.221 299.243 101.681 299.378 101.28C299.513 100.878 299.705 100.553 299.953 100.305C300.202 100.056 300.5 99.8272 300.848 99.6177C301.057 99.4898 301.246 99.3389 301.413 99.1649C301.58 98.9873 301.711 98.7831 301.807 98.5523C301.906 98.3215 301.956 98.0658 301.956 97.7853C301.956 97.4373 301.874 97.1354 301.711 96.8797C301.548 96.624 301.329 96.427 301.056 96.2885C300.782 96.15 300.479 96.0807 300.145 96.0807C299.854 96.0807 299.573 96.1411 299.303 96.2618C299.033 96.3826 298.808 96.5726 298.627 96.8318C298.446 97.091 298.341 97.4302 298.312 97.8492H296.97C296.999 97.2455 297.155 96.7288 297.439 96.2991C297.727 95.8694 298.105 95.5409 298.573 95.3137C299.046 95.0864 299.57 94.9728 300.145 94.9728C300.77 94.9728 301.313 95.0971 301.775 95.3456C302.24 95.5942 302.599 95.9351 302.851 96.3684C303.106 96.8016 303.234 97.2952 303.234 97.8492C303.234 98.2398 303.174 98.5932 303.053 98.9092C302.936 99.2253 302.766 99.5076 302.542 99.7561C302.322 100.005 302.055 100.225 301.743 100.417C301.43 100.612 301.18 100.818 300.992 101.035C300.804 101.248 300.667 101.502 300.582 101.796C300.496 102.091 300.45 102.459 300.443 102.899V102.963H299.165ZM299.847 106.116C299.584 106.116 299.358 106.022 299.17 105.834C298.982 105.646 298.888 105.42 298.888 105.157C298.888 104.895 298.982 104.669 299.17 104.481C299.358 104.293 299.584 104.199 299.847 104.199C300.109 104.199 300.335 104.293 300.523 104.481C300.711 104.669 300.805 104.895 300.805 105.157C300.805 105.331 300.761 105.491 300.672 105.637C300.587 105.782 300.472 105.9 300.326 105.988C300.184 106.074 300.024 106.116 299.847 106.116ZM306.789 95.1219L306.682 102.963H305.446L305.34 95.1219H306.789ZM306.064 106.116C305.801 106.116 305.576 106.022 305.388 105.834C305.199 105.646 305.105 105.42 305.105 105.157C305.105 104.895 305.199 104.669 305.388 104.481C305.576 104.293 305.801 104.199 306.064 104.199C306.327 104.199 306.552 104.293 306.741 104.481C306.929 104.669 307.023 104.895 307.023 105.157C307.023 105.331 306.979 105.491 306.89 105.637C306.805 105.782 306.689 105.9 306.544 105.988C306.402 106.074 306.242 106.116 306.064 106.116Z" fill="#010101"/>
<path d="M31.0029 62.8119C41.3467 62.8119 49.7319 54.4696 49.7319 44.1789C49.7319 33.8882 41.3467 25.5459 31.0029 25.5459C20.6592 25.5459 12.2739 33.8882 12.2739 44.1789C12.2739 54.4696 20.6592 62.8119 31.0029 62.8119Z" fill="#7259A5"/>
<path d="M27.5886 51.179V38.088H32.1654C33.0773 38.088 33.8294 38.2457 34.4217 38.5611C35.0141 38.8721 35.4551 39.2919 35.7449 39.8203C36.0347 40.3444 36.1796 40.9261 36.1796 41.5653C36.1796 42.1278 36.0794 42.5923 35.8791 42.9588C35.6831 43.3253 35.4232 43.615 35.0993 43.8281C34.7797 44.0412 34.4324 44.1988 34.0574 44.3011V44.429C34.458 44.4545 34.8607 44.5951 35.2655 44.8508C35.6703 45.1065 36.0091 45.473 36.2818 45.9503C36.5546 46.4275 36.6909 47.0113 36.6909 47.7017C36.6909 48.3579 36.5418 48.9481 36.2435 49.4723C35.9452 49.9964 35.4743 50.4119 34.8308 50.7187C34.1874 51.0255 33.35 51.179 32.3188 51.179H27.5886ZM29.1739 49.7727H32.3188C33.3543 49.7727 34.0894 49.5724 34.524 49.1719C34.9629 48.767 35.1824 48.277 35.1824 47.7017C35.1824 47.2585 35.0695 46.8494 34.8436 46.4744C34.6178 46.0951 34.296 45.7926 33.8784 45.5667C33.4608 45.3366 32.9665 45.2216 32.3955 45.2216H29.1739V49.7727ZM29.1739 43.8409H32.1142C32.5915 43.8409 33.0219 43.7471 33.4054 43.5596C33.7932 43.3721 34.1 43.1079 34.3259 42.767C34.556 42.4261 34.671 42.0255 34.671 41.5653C34.671 40.99 34.4707 40.5021 34.0702 40.1015C33.6696 39.6967 33.0347 39.4943 32.1654 39.4943H29.1739V43.8409Z" fill="white"/>
<path d="M57.6532 43.179V31.5426H61.7214C62.532 31.5426 63.2006 31.6827 63.7271 31.963C64.2536 32.2396 64.6457 32.6127 64.9032 33.0824C65.1608 33.5483 65.2896 34.0653 65.2896 34.6335C65.2896 35.1335 65.2006 35.5464 65.0225 35.8721C64.8483 36.1979 64.6172 36.4555 64.3294 36.6449C64.0453 36.8343 63.7366 36.9744 63.4032 37.0653V37.179C63.7593 37.2017 64.1172 37.3267 64.4771 37.554C64.8369 37.7812 65.1381 38.107 65.3805 38.5312C65.6229 38.9555 65.7441 39.4744 65.7441 40.088C65.7441 40.6714 65.6116 41.196 65.3464 41.6619C65.0813 42.1278 64.6627 42.4971 64.0907 42.7699C63.5188 43.0426 62.7744 43.179 61.8578 43.179H57.6532ZM59.0623 41.929H61.8578C62.7782 41.929 63.4316 41.7509 63.818 41.3949C64.2082 41.035 64.4032 40.5994 64.4032 40.088C64.4032 39.6941 64.3029 39.3305 64.1021 38.9971C63.9013 38.66 63.6154 38.3911 63.2441 38.1903C62.8729 37.9858 62.4335 37.8835 61.926 37.8835H59.0623V41.929ZM59.0623 36.6562H61.676C62.1002 36.6562 62.4828 36.5729 62.8237 36.4062C63.1684 36.2396 63.4411 36.0047 63.6419 35.7017C63.8464 35.3987 63.9487 35.0426 63.9487 34.6335C63.9487 34.1221 63.7707 33.6884 63.4146 33.3324C63.0585 32.9725 62.4941 32.7926 61.7214 32.7926H59.0623V36.6562ZM71.4231 43.3608C70.6352 43.3608 69.944 43.1733 69.3493 42.7983C68.7583 42.4233 68.2962 41.8987 67.9629 41.2244C67.6333 40.5502 67.4686 39.7623 67.4686 38.8608C67.4686 37.9517 67.6333 37.1581 67.9629 36.4801C68.2962 35.8021 68.7583 35.2755 69.3493 34.9005C69.944 34.5255 70.6352 34.338 71.4231 34.338C72.211 34.338 72.9004 34.5255 73.4913 34.9005C74.086 35.2755 74.5481 35.8021 74.8777 36.4801C75.211 37.1581 75.3777 37.9517 75.3777 38.8608C75.3777 39.7623 75.211 40.5502 74.8777 41.2244C74.5481 41.8987 74.086 42.4233 73.4913 42.7983C72.9004 43.1733 72.211 43.3608 71.4231 43.3608ZM71.4231 42.1562C72.0216 42.1562 72.514 42.0028 72.9004 41.696C73.2868 41.3892 73.5727 40.9858 73.7583 40.4858C73.944 39.9858 74.0368 39.4441 74.0368 38.8608C74.0368 38.2774 73.944 37.7339 73.7583 37.2301C73.5727 36.7263 73.2868 36.3191 72.9004 36.0085C72.514 35.6979 72.0216 35.5426 71.4231 35.5426C70.8246 35.5426 70.3322 35.6979 69.9458 36.0085C69.5595 36.3191 69.2735 36.7263 69.0879 37.2301C68.9023 37.7339 68.8095 38.2774 68.8095 38.8608C68.8095 39.4441 68.9023 39.9858 69.0879 40.4858C69.2735 40.9858 69.5595 41.3892 69.9458 41.696C70.3322 42.0028 70.8246 42.1562 71.4231 42.1562ZM77.6064 43.179V31.5426H78.9473V35.838H79.0609C79.1594 35.6865 79.2958 35.4933 79.47 35.2585C79.648 35.0199 79.9018 34.8077 80.2314 34.6221C80.5647 34.4327 81.0154 34.338 81.5836 34.338C82.3185 34.338 82.9662 34.5218 83.5268 34.8892C84.0874 35.2566 84.5249 35.7774 84.8393 36.4517C85.1537 37.1259 85.3109 37.9214 85.3109 38.838C85.3109 39.7623 85.1537 40.5634 84.8393 41.2415C84.5249 41.9157 84.0893 42.4384 83.5325 42.8096C82.9757 43.1771 82.3336 43.3608 81.6064 43.3608C81.0458 43.3608 80.5969 43.268 80.2598 43.0824C79.9226 42.893 79.6632 42.679 79.4814 42.4403C79.2995 42.1979 79.1594 41.9971 79.0609 41.838H78.9018V43.179H77.6064ZM78.9245 38.8153C78.9245 39.4744 79.0211 40.0558 79.2143 40.5596C79.4075 41.0596 79.6897 41.4517 80.0609 41.7358C80.4321 42.0161 80.8867 42.1562 81.4245 42.1562C81.9851 42.1562 82.4529 42.0085 82.8279 41.713C83.2067 41.4138 83.4908 41.0123 83.6802 40.5085C83.8734 40.0009 83.97 39.4365 83.97 38.8153C83.97 38.2017 83.8753 37.6487 83.6859 37.1562C83.5003 36.66 83.2181 36.268 82.8393 35.9801C82.4643 35.6884 81.9927 35.5426 81.4245 35.5426C80.8791 35.5426 80.4208 35.6808 80.0495 35.9574C79.6783 36.2301 79.398 36.6127 79.2086 37.1051C79.0192 37.5937 78.9245 38.1638 78.9245 38.8153ZM89.9302 43.3835C89.3772 43.3835 88.8753 43.2793 88.4245 43.071C87.9738 42.8589 87.6158 42.554 87.3507 42.1562C87.0855 41.7547 86.9529 41.2699 86.9529 40.7017C86.9529 40.2017 87.0514 39.7964 87.2484 39.4858C87.4454 39.1714 87.7086 38.9252 88.0382 38.7471C88.3677 38.5691 88.7314 38.4365 89.1291 38.3494C89.5306 38.2585 89.934 38.1865 90.3393 38.1335C90.8696 38.0653 91.2995 38.0142 91.6291 37.9801C91.9624 37.9422 92.2048 37.8797 92.3564 37.7926C92.5117 37.7055 92.5893 37.554 92.5893 37.338V37.2926C92.5893 36.732 92.4359 36.2964 92.1291 35.9858C91.8261 35.6752 91.3658 35.5199 90.7484 35.5199C90.1083 35.5199 89.6064 35.66 89.2427 35.9403C88.8791 36.2206 88.6234 36.5199 88.4757 36.838L87.2029 36.3835C87.4302 35.8532 87.7333 35.4403 88.112 35.1449C88.4946 34.8456 88.9113 34.6373 89.362 34.5199C89.8166 34.3987 90.2636 34.338 90.7029 34.338C90.9833 34.338 91.3052 34.3721 91.6689 34.4403C92.0363 34.5047 92.3904 34.6392 92.7314 34.8437C93.0761 35.0483 93.362 35.357 93.5893 35.7699C93.8166 36.1827 93.9302 36.7358 93.9302 37.429V43.179H92.5893V41.9971H92.5211C92.4302 42.1865 92.2787 42.3892 92.0666 42.6051C91.8545 42.821 91.5723 43.0047 91.22 43.1562C90.8677 43.3077 90.4378 43.3835 89.9302 43.3835ZM90.1348 42.179C90.6651 42.179 91.112 42.0748 91.4757 41.8665C91.8431 41.6581 92.1196 41.3892 92.3052 41.0596C92.4946 40.7301 92.5893 40.3835 92.5893 40.0199V38.7926C92.5325 38.8608 92.4075 38.9233 92.2143 38.9801C92.0249 39.0331 91.8052 39.0805 91.5552 39.1221C91.309 39.16 91.0685 39.1941 90.8336 39.2244C90.6026 39.2509 90.4151 39.2737 90.2711 39.2926C89.9226 39.338 89.5969 39.4119 89.2939 39.5142C88.9946 39.6127 88.7522 39.7623 88.5666 39.963C88.3848 40.16 88.2939 40.429 88.2939 40.7699C88.2939 41.2358 88.4662 41.588 88.8109 41.8267C89.1594 42.0615 89.6007 42.179 90.1348 42.179ZM96.3777 43.179V34.4517H97.6731V35.7699H97.764C97.9231 35.338 98.211 34.9877 98.6277 34.7187C99.0443 34.4498 99.514 34.3153 100.037 34.3153C100.135 34.3153 100.258 34.3172 100.406 34.321C100.554 34.3248 100.666 34.3305 100.741 34.338V35.7017C100.696 35.6903 100.592 35.6733 100.429 35.6505C100.27 35.624 100.101 35.6108 99.9231 35.6108C99.4989 35.6108 99.1201 35.6998 98.7868 35.8778C98.4572 36.0521 98.1958 36.2945 98.0027 36.6051C97.8133 36.9119 97.7186 37.2623 97.7186 37.6562V43.179H96.3777ZM107.831 39.6108V34.4517H109.172V43.179H107.831V41.7017H107.74C107.535 42.1449 107.217 42.5218 106.785 42.8324C106.354 43.1392 105.808 43.2926 105.149 43.2926C104.604 43.2926 104.119 43.1733 103.694 42.9346C103.27 42.6922 102.937 42.3286 102.694 41.8437C102.452 41.3551 102.331 40.7396 102.331 39.9971V34.4517H103.672V39.9062C103.672 40.5426 103.85 41.0502 104.206 41.429C104.566 41.8077 105.024 41.9971 105.581 41.9971C105.914 41.9971 106.253 41.9119 106.598 41.7415C106.946 41.571 107.238 41.3096 107.473 40.9574C107.711 40.6051 107.831 40.1562 107.831 39.6108ZM117.809 36.4062L116.605 36.7471C116.529 36.5464 116.417 36.3513 116.27 36.1619C116.126 35.9687 115.929 35.8096 115.679 35.6846C115.429 35.5596 115.109 35.4971 114.719 35.4971C114.184 35.4971 113.739 35.6202 113.383 35.8665C113.031 36.1089 112.855 36.4176 112.855 36.7926C112.855 37.1259 112.976 37.3892 113.219 37.5824C113.461 37.7755 113.84 37.9365 114.355 38.0653L115.65 38.3835C116.431 38.5729 117.012 38.8627 117.395 39.2528C117.777 39.6392 117.969 40.1373 117.969 40.7471C117.969 41.2471 117.825 41.6941 117.537 42.088C117.253 42.482 116.855 42.7926 116.344 43.0199C115.832 43.2471 115.238 43.3608 114.559 43.3608C113.669 43.3608 112.933 43.1676 112.349 42.7812C111.766 42.3949 111.397 41.8305 111.241 41.088L112.514 40.7699C112.635 41.2396 112.864 41.5918 113.202 41.8267C113.542 42.0615 113.988 42.179 114.537 42.179C115.162 42.179 115.658 42.0464 116.025 41.7812C116.397 41.5123 116.582 41.1903 116.582 40.8153C116.582 40.5123 116.476 40.2585 116.264 40.054C116.052 39.8456 115.726 39.6903 115.287 39.588L113.832 39.2471C113.033 39.0577 112.446 38.7642 112.071 38.3665C111.7 37.9649 111.514 37.463 111.514 36.8608C111.514 36.3683 111.652 35.9327 111.929 35.554C112.209 35.1752 112.59 34.8778 113.071 34.6619C113.556 34.446 114.105 34.338 114.719 34.338C115.582 34.338 116.26 34.5274 116.753 34.9062C117.249 35.285 117.601 35.785 117.809 36.4062ZM121.237 39.9971L121.214 38.338H121.487L125.305 34.4517H126.964L122.896 38.5653H122.782L121.237 39.9971ZM119.987 43.179V31.5426H121.328V43.179H119.987ZM125.532 43.179L122.123 38.8608L123.078 37.929L127.237 43.179H125.532ZM128.69 43.179V34.4517H130.031V43.179H128.69ZM129.372 32.9971C129.111 32.9971 128.885 32.9081 128.696 32.7301C128.51 32.5521 128.417 32.338 128.417 32.088C128.417 31.838 128.51 31.624 128.696 31.446C128.885 31.268 129.111 31.179 129.372 31.179C129.633 31.179 129.857 31.268 130.042 31.446C130.232 31.624 130.327 31.838 130.327 32.088C130.327 32.338 130.232 32.5521 130.042 32.7301C129.857 32.9081 129.633 32.9971 129.372 32.9971ZM136.146 43.3608C135.305 43.3608 134.58 43.1752 133.97 42.804C133.364 42.429 132.896 41.9062 132.567 41.2358C132.241 40.5615 132.078 39.7774 132.078 38.8835C132.078 37.9896 132.241 37.2017 132.567 36.5199C132.896 35.8343 133.354 35.3002 133.942 34.9176C134.532 34.5312 135.222 34.338 136.01 34.338C136.464 34.338 136.913 34.4138 137.356 34.5653C137.8 34.7168 138.203 34.963 138.567 35.304C138.93 35.6411 139.22 36.088 139.436 36.6449C139.652 37.2017 139.76 37.8873 139.76 38.7017V39.2699H133.032V38.1108H138.396C138.396 37.6183 138.298 37.179 138.101 36.7926C137.907 36.4062 137.631 36.1013 137.271 35.8778C136.915 35.6543 136.495 35.5426 136.01 35.5426C135.476 35.5426 135.014 35.6752 134.623 35.9403C134.237 36.2017 133.94 36.5426 133.731 36.963C133.523 37.3835 133.419 37.8343 133.419 38.3153V39.088C133.419 39.7471 133.532 40.3058 133.76 40.7642C133.991 41.2187 134.311 41.5653 134.72 41.804C135.129 42.0388 135.604 42.1562 136.146 42.1562C136.498 42.1562 136.817 42.107 137.101 42.0085C137.389 41.9062 137.637 41.7547 137.845 41.554C138.053 41.3494 138.214 41.0956 138.328 40.7926L139.623 41.1562C139.487 41.5956 139.258 41.982 138.936 42.3153C138.614 42.6449 138.216 42.9024 137.743 43.088C137.269 43.2699 136.737 43.3608 136.146 43.3608Z" fill="black"/>
<path d="M15.1968 128.715H324.303" stroke="#999B9E" stroke-width="0.5" stroke-miterlimit="10"/>
<path d="M298.133 44.196C298.961 44.196 299.633 43.4573 299.633 42.546C299.633 41.6347 298.961 40.896 298.133 40.896C297.304 40.896 296.633 41.6347 296.633 42.546C296.633 43.4573 297.304 44.196 298.133 44.196Z" fill="#282829"/>
<path d="M311.467 44.196C312.295 44.196 312.967 43.4573 312.967 42.546C312.967 41.6347 312.295 40.896 311.467 40.896C310.638 40.896 309.967 41.6347 309.967 42.546C309.967 43.4573 310.638 44.196 311.467 44.196Z" fill="#282829"/>
<path d="M304.633 44.196C305.461 44.196 306.133 43.4573 306.133 42.546C306.133 41.6347 305.461 40.896 304.633 40.896C303.804 40.896 303.133 41.6347 303.133 42.546C303.133 43.4573 303.804 44.196 304.633 44.196Z" fill="#282829"/>
<path opacity="0.8" d="M337.947 0H0V172.802H337.947V0Z" fill="#626263"/>
<path opacity="0.4" d="M320.5 28.8459H288.5V55.8139H320.5V28.8459Z" fill="#DADBDC"/>
</svg>
